<mxfile host="Electron" agent="Mozilla/5.0 (Windows NT 10.0; Win64; x64) AppleWebKit/537.36 (KHTML, like Gecko) draw.io/28.1.2 Chrome/138.0.7204.243 Electron/37.4.0 Safari/537.36" version="28.1.2">
  <diagram id="AXTahhfXZl82G2iCzhE3" name="Page-1">
    <mxGraphModel dx="1072" dy="1763" grid="1" gridSize="10" guides="1" tooltips="1" connect="1" arrows="1" fold="1" page="1" pageScale="1" pageWidth="850" pageHeight="1100" math="0" shadow="0">
      <root>
        <mxCell id="0" />
        <mxCell id="1" parent="0" />
        <mxCell id="K2BsHjy6juh8Ua25t9S5-1" value="Item" style="swimlane;fontStyle=1;childLayout=stackLayout;horizontal=1;startSize=30;horizontalStack=0;resizeParent=1;resizeParentMax=0;resizeLast=0;collapsible=1;marginBottom=0;whiteSpace=wrap;html=1;fillColor=#CCE5FF;fillStyle=auto;" parent="1" vertex="1">
          <mxGeometry x="420" y="-675" width="140" height="390" as="geometry" />
        </mxCell>
        <mxCell id="K2BsHjy6juh8Ua25t9S5-2" value="type: ItemType" style="text;strokeColor=none;fillColor=none;align=left;verticalAlign=middle;spacingLeft=4;spacingRight=4;overflow=hidden;points=[[0,0.5],[1,0.5]];portConstraint=eastwest;rotatable=0;whiteSpace=wrap;html=1;" parent="K2BsHjy6juh8Ua25t9S5-1" vertex="1">
          <mxGeometry y="30" width="140" height="30" as="geometry" />
        </mxCell>
        <mxCell id="CpMBo5jT-6ZhsACoMXyv-11" value="subtype: ItemSubtype" style="text;strokeColor=none;fillColor=none;align=left;verticalAlign=middle;spacingLeft=4;spacingRight=4;overflow=hidden;points=[[0,0.5],[1,0.5]];portConstraint=eastwest;rotatable=0;whiteSpace=wrap;html=1;" parent="K2BsHjy6juh8Ua25t9S5-1" vertex="1">
          <mxGeometry y="60" width="140" height="30" as="geometry" />
        </mxCell>
        <mxCell id="CpMBo5jT-6ZhsACoMXyv-12" value="group: ItemGroup&lt;br&gt;" style="text;strokeColor=none;fillColor=none;align=left;verticalAlign=middle;spacingLeft=4;spacingRight=4;overflow=hidden;points=[[0,0.5],[1,0.5]];portConstraint=eastwest;rotatable=0;whiteSpace=wrap;html=1;" parent="K2BsHjy6juh8Ua25t9S5-1" vertex="1">
          <mxGeometry y="90" width="140" height="30" as="geometry" />
        </mxCell>
        <mxCell id="K2BsHjy6juh8Ua25t9S5-3" value="name: string" style="text;strokeColor=none;fillColor=none;align=left;verticalAlign=middle;spacingLeft=4;spacingRight=4;overflow=hidden;points=[[0,0.5],[1,0.5]];portConstraint=eastwest;rotatable=0;whiteSpace=wrap;html=1;" parent="K2BsHjy6juh8Ua25t9S5-1" vertex="1">
          <mxGeometry y="120" width="140" height="30" as="geometry" />
        </mxCell>
        <mxCell id="K2BsHjy6juh8Ua25t9S5-5" value="icon: string" style="text;strokeColor=none;fillColor=none;align=left;verticalAlign=middle;spacingLeft=4;spacingRight=4;overflow=hidden;points=[[0,0.5],[1,0.5]];portConstraint=eastwest;rotatable=0;whiteSpace=wrap;html=1;" parent="K2BsHjy6juh8Ua25t9S5-1" vertex="1">
          <mxGeometry y="150" width="140" height="30" as="geometry" />
        </mxCell>
        <mxCell id="K2BsHjy6juh8Ua25t9S5-6" value="order: number" style="text;strokeColor=none;fillColor=none;align=left;verticalAlign=middle;spacingLeft=4;spacingRight=4;overflow=hidden;points=[[0,0.5],[1,0.5]];portConstraint=eastwest;rotatable=0;whiteSpace=wrap;html=1;" parent="K2BsHjy6juh8Ua25t9S5-1" vertex="1">
          <mxGeometry y="180" width="140" height="30" as="geometry" />
        </mxCell>
        <mxCell id="K2BsHjy6juh8Ua25t9S5-8" value="Emote" style="text;strokeColor=default;fillColor=#F2F2F2;align=left;verticalAlign=middle;spacingLeft=4;spacingRight=4;overflow=hidden;points=[[0,0.5],[1,0.5]];portConstraint=eastwest;rotatable=0;whiteSpace=wrap;html=1;" parent="K2BsHjy6juh8Ua25t9S5-1" vertex="1">
          <mxGeometry y="210" width="140" height="20" as="geometry" />
        </mxCell>
        <mxCell id="K2BsHjy6juh8Ua25t9S5-4" value="level: number" style="text;strokeColor=none;fillColor=none;align=left;verticalAlign=middle;spacingLeft=4;spacingRight=4;overflow=hidden;points=[[0,0.5],[1,0.5]];portConstraint=eastwest;rotatable=0;whiteSpace=wrap;html=1;" parent="K2BsHjy6juh8Ua25t9S5-1" vertex="1">
          <mxGeometry y="230" width="140" height="30" as="geometry" />
        </mxCell>
        <mxCell id="NMLMTX02bqpTLhXPdmmr-28" value="Music" style="text;strokeColor=default;fillColor=#F2F2F2;align=left;verticalAlign=middle;spacingLeft=4;spacingRight=4;overflow=hidden;points=[[0,0.5],[1,0.5]];portConstraint=eastwest;rotatable=0;whiteSpace=wrap;html=1;" parent="K2BsHjy6juh8Ua25t9S5-1" vertex="1">
          <mxGeometry y="260" width="140" height="20" as="geometry" />
        </mxCell>
        <mxCell id="NMLMTX02bqpTLhXPdmmr-27" value="sheet: string" style="text;strokeColor=none;fillColor=none;align=left;verticalAlign=middle;spacingLeft=4;spacingRight=4;overflow=hidden;points=[[0,0.5],[1,0.5]];portConstraint=eastwest;rotatable=0;whiteSpace=wrap;html=1;" parent="K2BsHjy6juh8Ua25t9S5-1" vertex="1">
          <mxGeometry y="280" width="140" height="30" as="geometry" />
        </mxCell>
        <mxCell id="K2BsHjy6juh8Ua25t9S5-9" value="Progress" style="text;strokeColor=default;fillColor=#F2F2F2;align=left;verticalAlign=middle;spacingLeft=4;spacingRight=4;overflow=hidden;points=[[0,0.5],[1,0.5]];portConstraint=eastwest;rotatable=0;whiteSpace=wrap;html=1;" parent="K2BsHjy6juh8Ua25t9S5-1" vertex="1">
          <mxGeometry y="310" width="140" height="20" as="geometry" />
        </mxCell>
        <mxCell id="K2BsHjy6juh8Ua25t9S5-10" value="unlocked: boolean" style="text;strokeColor=none;fillColor=none;align=left;verticalAlign=middle;spacingLeft=4;spacingRight=4;overflow=hidden;points=[[0,0.5],[1,0.5]];portConstraint=eastwest;rotatable=0;whiteSpace=wrap;html=1;" parent="K2BsHjy6juh8Ua25t9S5-1" vertex="1">
          <mxGeometry y="330" width="140" height="30" as="geometry" />
        </mxCell>
        <mxCell id="sDuxh0MpjBPP9tmrGERw-1" value="autoUnlocked: boolean" style="text;strokeColor=none;fillColor=none;align=left;verticalAlign=middle;spacingLeft=4;spacingRight=4;overflow=hidden;points=[[0,0.5],[1,0.5]];portConstraint=eastwest;rotatable=0;whiteSpace=wrap;html=1;" parent="K2BsHjy6juh8Ua25t9S5-1" vertex="1">
          <mxGeometry y="360" width="140" height="30" as="geometry" />
        </mxCell>
        <mxCell id="K2BsHjy6juh8Ua25t9S5-11" value="ItemType" style="swimlane;fontStyle=1;childLayout=stackLayout;horizontal=1;startSize=30;horizontalStack=0;resizeParent=1;resizeParentMax=0;resizeLast=0;collapsible=1;marginBottom=0;whiteSpace=wrap;html=1;fillStyle=auto;strokeColor=#8C8C8C;fillColor=#E3E3E3;" parent="1" vertex="1">
          <mxGeometry x="80" y="-890" width="140" height="600" as="geometry" />
        </mxCell>
        <mxCell id="K2BsHjy6juh8Ua25t9S5-12" value="HairAccessory" style="text;strokeColor=none;fillColor=none;align=left;verticalAlign=middle;spacingLeft=4;spacingRight=4;overflow=hidden;points=[[0,0.5],[1,0.5]];portConstraint=eastwest;rotatable=0;whiteSpace=wrap;html=1;fillStyle=auto;" parent="K2BsHjy6juh8Ua25t9S5-11" vertex="1">
          <mxGeometry y="30" width="140" height="30" as="geometry" />
        </mxCell>
        <mxCell id="nUPRqXd93EUVTv8ZauZL-1" value="HeadAccessory" style="text;strokeColor=none;fillColor=none;align=left;verticalAlign=middle;spacingLeft=4;spacingRight=4;overflow=hidden;points=[[0,0.5],[1,0.5]];portConstraint=eastwest;rotatable=0;whiteSpace=wrap;html=1;fillStyle=auto;" parent="K2BsHjy6juh8Ua25t9S5-11" vertex="1">
          <mxGeometry y="60" width="140" height="30" as="geometry" />
        </mxCell>
        <mxCell id="K2BsHjy6juh8Ua25t9S5-13" value="Hair" style="text;strokeColor=none;fillColor=none;align=left;verticalAlign=middle;spacingLeft=4;spacingRight=4;overflow=hidden;points=[[0,0.5],[1,0.5]];portConstraint=eastwest;rotatable=0;whiteSpace=wrap;html=1;fillStyle=auto;" parent="K2BsHjy6juh8Ua25t9S5-11" vertex="1">
          <mxGeometry y="90" width="140" height="30" as="geometry" />
        </mxCell>
        <mxCell id="K2BsHjy6juh8Ua25t9S5-14" value="Mask" style="text;strokeColor=none;fillColor=none;align=left;verticalAlign=middle;spacingLeft=4;spacingRight=4;overflow=hidden;points=[[0,0.5],[1,0.5]];portConstraint=eastwest;rotatable=0;whiteSpace=wrap;html=1;fillStyle=auto;" parent="K2BsHjy6juh8Ua25t9S5-11" vertex="1">
          <mxGeometry y="120" width="140" height="30" as="geometry" />
        </mxCell>
        <mxCell id="nUPRqXd93EUVTv8ZauZL-2" value="FaceAccessory" style="text;strokeColor=none;fillColor=none;align=left;verticalAlign=middle;spacingLeft=4;spacingRight=4;overflow=hidden;points=[[0,0.5],[1,0.5]];portConstraint=eastwest;rotatable=0;whiteSpace=wrap;html=1;fillStyle=auto;" parent="K2BsHjy6juh8Ua25t9S5-11" vertex="1">
          <mxGeometry y="150" width="140" height="30" as="geometry" />
        </mxCell>
        <mxCell id="K2BsHjy6juh8Ua25t9S5-15" value="Necklace" style="text;strokeColor=none;fillColor=none;align=left;verticalAlign=middle;spacingLeft=4;spacingRight=4;overflow=hidden;points=[[0,0.5],[1,0.5]];portConstraint=eastwest;rotatable=0;whiteSpace=wrap;html=1;fillStyle=auto;" parent="K2BsHjy6juh8Ua25t9S5-11" vertex="1">
          <mxGeometry y="180" width="140" height="30" as="geometry" />
        </mxCell>
        <mxCell id="K2BsHjy6juh8Ua25t9S5-17" value="Outfit" style="text;strokeColor=none;fillColor=none;align=left;verticalAlign=middle;spacingLeft=4;spacingRight=4;overflow=hidden;points=[[0,0.5],[1,0.5]];portConstraint=eastwest;rotatable=0;whiteSpace=wrap;html=1;fillStyle=auto;" parent="K2BsHjy6juh8Ua25t9S5-11" vertex="1">
          <mxGeometry y="210" width="140" height="30" as="geometry" />
        </mxCell>
        <mxCell id="K2BsHjy6juh8Ua25t9S5-18" value="Cape" style="text;strokeColor=none;fillColor=none;align=left;verticalAlign=middle;spacingLeft=4;spacingRight=4;overflow=hidden;points=[[0,0.5],[1,0.5]];portConstraint=eastwest;rotatable=0;whiteSpace=wrap;html=1;fillStyle=auto;" parent="K2BsHjy6juh8Ua25t9S5-11" vertex="1">
          <mxGeometry y="240" width="140" height="30" as="geometry" />
        </mxCell>
        <mxCell id="K2BsHjy6juh8Ua25t9S5-20" value="Held" style="text;strokeColor=none;fillColor=none;align=left;verticalAlign=middle;spacingLeft=4;spacingRight=4;overflow=hidden;points=[[0,0.5],[1,0.5]];portConstraint=eastwest;rotatable=0;whiteSpace=wrap;html=1;fillStyle=auto;" parent="K2BsHjy6juh8Ua25t9S5-11" vertex="1">
          <mxGeometry y="270" width="140" height="30" as="geometry" />
        </mxCell>
        <mxCell id="j5jMq9Sn3-T2se1gt8Ah-1" value="Furniture" style="text;strokeColor=none;fillColor=none;align=left;verticalAlign=middle;spacingLeft=4;spacingRight=4;overflow=hidden;points=[[0,0.5],[1,0.5]];portConstraint=eastwest;rotatable=0;whiteSpace=wrap;html=1;fillStyle=auto;" parent="K2BsHjy6juh8Ua25t9S5-11" vertex="1">
          <mxGeometry y="300" width="140" height="30" as="geometry" />
        </mxCell>
        <mxCell id="K2BsHjy6juh8Ua25t9S5-19" value="Prop" style="text;strokeColor=none;fillColor=none;align=left;verticalAlign=middle;spacingLeft=4;spacingRight=4;overflow=hidden;points=[[0,0.5],[1,0.5]];portConstraint=eastwest;rotatable=0;whiteSpace=wrap;html=1;fillStyle=auto;" parent="K2BsHjy6juh8Ua25t9S5-11" vertex="1">
          <mxGeometry y="330" width="140" height="30" as="geometry" />
        </mxCell>
        <mxCell id="K2BsHjy6juh8Ua25t9S5-21" value="Emote" style="text;strokeColor=none;fillColor=none;align=left;verticalAlign=middle;spacingLeft=4;spacingRight=4;overflow=hidden;points=[[0,0.5],[1,0.5]];portConstraint=eastwest;rotatable=0;whiteSpace=wrap;html=1;fillStyle=auto;" parent="K2BsHjy6juh8Ua25t9S5-11" vertex="1">
          <mxGeometry y="360" width="140" height="30" as="geometry" />
        </mxCell>
        <mxCell id="K2BsHjy6juh8Ua25t9S5-22" value="Stance" style="text;strokeColor=none;fillColor=none;align=left;verticalAlign=middle;spacingLeft=4;spacingRight=4;overflow=hidden;points=[[0,0.5],[1,0.5]];portConstraint=eastwest;rotatable=0;whiteSpace=wrap;html=1;fillStyle=auto;" parent="K2BsHjy6juh8Ua25t9S5-11" vertex="1">
          <mxGeometry y="390" width="140" height="30" as="geometry" />
        </mxCell>
        <mxCell id="K2BsHjy6juh8Ua25t9S5-23" value="Call" style="text;strokeColor=none;fillColor=none;align=left;verticalAlign=middle;spacingLeft=4;spacingRight=4;overflow=hidden;points=[[0,0.5],[1,0.5]];portConstraint=eastwest;rotatable=0;whiteSpace=wrap;html=1;fillStyle=auto;" parent="K2BsHjy6juh8Ua25t9S5-11" vertex="1">
          <mxGeometry y="420" width="140" height="30" as="geometry" />
        </mxCell>
        <mxCell id="K2BsHjy6juh8Ua25t9S5-24" value="Spell" style="text;strokeColor=none;fillColor=none;align=left;verticalAlign=middle;spacingLeft=4;spacingRight=4;overflow=hidden;points=[[0,0.5],[1,0.5]];portConstraint=eastwest;rotatable=0;whiteSpace=wrap;html=1;fillStyle=auto;" parent="K2BsHjy6juh8Ua25t9S5-11" vertex="1">
          <mxGeometry y="450" width="140" height="30" as="geometry" />
        </mxCell>
        <mxCell id="K2BsHjy6juh8Ua25t9S5-25" value="Music" style="text;strokeColor=none;fillColor=none;align=left;verticalAlign=middle;spacingLeft=4;spacingRight=4;overflow=hidden;points=[[0,0.5],[1,0.5]];portConstraint=eastwest;rotatable=0;whiteSpace=wrap;html=1;fillStyle=auto;" parent="K2BsHjy6juh8Ua25t9S5-11" vertex="1">
          <mxGeometry y="480" width="140" height="30" as="geometry" />
        </mxCell>
        <mxCell id="K2BsHjy6juh8Ua25t9S5-26" value="Quest" style="text;strokeColor=none;fillColor=none;align=left;verticalAlign=middle;spacingLeft=4;spacingRight=4;overflow=hidden;points=[[0,0.5],[1,0.5]];portConstraint=eastwest;rotatable=0;whiteSpace=wrap;html=1;fillStyle=auto;" parent="K2BsHjy6juh8Ua25t9S5-11" vertex="1">
          <mxGeometry y="510" width="140" height="30" as="geometry" />
        </mxCell>
        <mxCell id="K2BsHjy6juh8Ua25t9S5-27" value="WingBuff" style="text;strokeColor=none;fillColor=none;align=left;verticalAlign=middle;spacingLeft=4;spacingRight=4;overflow=hidden;points=[[0,0.5],[1,0.5]];portConstraint=eastwest;rotatable=0;whiteSpace=wrap;html=1;fillStyle=auto;" parent="K2BsHjy6juh8Ua25t9S5-11" vertex="1">
          <mxGeometry y="540" width="140" height="30" as="geometry" />
        </mxCell>
        <mxCell id="K2BsHjy6juh8Ua25t9S5-28" value="Special" style="text;strokeColor=none;fillColor=none;align=left;verticalAlign=middle;spacingLeft=4;spacingRight=4;overflow=hidden;points=[[0,0.5],[1,0.5]];portConstraint=eastwest;rotatable=0;whiteSpace=wrap;html=1;fillStyle=auto;" parent="K2BsHjy6juh8Ua25t9S5-11" vertex="1">
          <mxGeometry y="570" width="140" height="30" as="geometry" />
        </mxCell>
        <mxCell id="K2BsHjy6juh8Ua25t9S5-38" value="Node" style="swimlane;fontStyle=1;childLayout=stackLayout;horizontal=1;startSize=30;horizontalStack=0;resizeParent=1;resizeParentMax=0;resizeLast=0;collapsible=1;marginBottom=0;whiteSpace=wrap;html=1;fillStyle=auto;strokeColor=#8C8C8C;fillColor=#CCFFFF;" parent="1" vertex="1">
          <mxGeometry x="420" y="-230" width="140" height="110" as="geometry" />
        </mxCell>
        <mxCell id="sDuxh0MpjBPP9tmrGERw-85" value="Cost" style="text;strokeColor=none;fillColor=none;align=left;verticalAlign=middle;spacingLeft=4;spacingRight=4;overflow=hidden;points=[[0,0.5],[1,0.5]];portConstraint=eastwest;rotatable=0;whiteSpace=wrap;html=1;fillStyle=auto;fontStyle=1" parent="K2BsHjy6juh8Ua25t9S5-38" vertex="1">
          <mxGeometry y="30" width="140" height="30" as="geometry" />
        </mxCell>
        <mxCell id="K2BsHjy6juh8Ua25t9S5-86" value="Progress" style="text;strokeColor=default;fillColor=#F2F2F2;align=left;verticalAlign=middle;spacingLeft=4;spacingRight=4;overflow=hidden;points=[[0,0.5],[1,0.5]];portConstraint=eastwest;rotatable=0;whiteSpace=wrap;html=1;" parent="K2BsHjy6juh8Ua25t9S5-38" vertex="1">
          <mxGeometry y="60" width="140" height="20" as="geometry" />
        </mxCell>
        <mxCell id="K2BsHjy6juh8Ua25t9S5-39" value="unlocked: boolean" style="text;strokeColor=none;fillColor=none;align=left;verticalAlign=middle;spacingLeft=4;spacingRight=4;overflow=hidden;points=[[0,0.5],[1,0.5]];portConstraint=eastwest;rotatable=0;whiteSpace=wrap;html=1;fillStyle=auto;" parent="K2BsHjy6juh8Ua25t9S5-38" vertex="1">
          <mxGeometry y="80" width="140" height="30" as="geometry" />
        </mxCell>
        <mxCell id="K2BsHjy6juh8Ua25t9S5-42" value="IAP" style="swimlane;fontStyle=1;childLayout=stackLayout;horizontal=1;startSize=30;horizontalStack=0;resizeParent=1;resizeParentMax=0;resizeLast=0;collapsible=1;marginBottom=0;whiteSpace=wrap;html=1;fillStyle=auto;strokeColor=#8C8C8C;fillColor=#FFCCCC;" parent="1" vertex="1">
          <mxGeometry x="420" y="-1010" width="140" height="280" as="geometry" />
        </mxCell>
        <mxCell id="K2BsHjy6juh8Ua25t9S5-43" value="price: number (USD)" style="text;strokeColor=none;fillColor=none;align=left;verticalAlign=middle;spacingLeft=4;spacingRight=4;overflow=hidden;points=[[0,0.5],[1,0.5]];portConstraint=eastwest;rotatable=0;whiteSpace=wrap;html=1;fillStyle=auto;" parent="K2BsHjy6juh8Ua25t9S5-42" vertex="1">
          <mxGeometry y="30" width="140" height="30" as="geometry" />
        </mxCell>
        <mxCell id="PBAJdNJp6wdwmji5P2WY-36" value="name: string" style="text;strokeColor=none;fillColor=none;align=left;verticalAlign=middle;spacingLeft=4;spacingRight=4;overflow=hidden;points=[[0,0.5],[1,0.5]];portConstraint=eastwest;rotatable=0;whiteSpace=wrap;html=1;fillStyle=auto;" parent="K2BsHjy6juh8Ua25t9S5-42" vertex="1">
          <mxGeometry y="60" width="140" height="30" as="geometry" />
        </mxCell>
        <mxCell id="PBAJdNJp6wdwmji5P2WY-37" value="returning: boolean" style="text;strokeColor=none;fillColor=none;align=left;verticalAlign=middle;spacingLeft=4;spacingRight=4;overflow=hidden;points=[[0,0.5],[1,0.5]];portConstraint=eastwest;rotatable=0;whiteSpace=wrap;html=1;fillStyle=auto;" parent="K2BsHjy6juh8Ua25t9S5-42" vertex="1">
          <mxGeometry y="90" width="140" height="30" as="geometry" />
        </mxCell>
        <mxCell id="PBAJdNJp6wdwmji5P2WY-38" value="Bonus" style="text;strokeColor=default;fillColor=#F2F2F2;align=left;verticalAlign=middle;spacingLeft=4;spacingRight=4;overflow=hidden;points=[[0,0.5],[1,0.5]];portConstraint=eastwest;rotatable=0;whiteSpace=wrap;html=1;" parent="K2BsHjy6juh8Ua25t9S5-42" vertex="1">
          <mxGeometry y="120" width="140" height="20" as="geometry" />
        </mxCell>
        <mxCell id="PBAJdNJp6wdwmji5P2WY-39" value="c: number (candles)" style="text;strokeColor=none;fillColor=none;align=left;verticalAlign=middle;spacingLeft=4;spacingRight=4;overflow=hidden;points=[[0,0.5],[1,0.5]];portConstraint=eastwest;rotatable=0;whiteSpace=wrap;html=1;fillStyle=auto;" parent="K2BsHjy6juh8Ua25t9S5-42" vertex="1">
          <mxGeometry y="140" width="140" height="30" as="geometry" />
        </mxCell>
        <mxCell id="PBAJdNJp6wdwmji5P2WY-40" value="sc: number (candles)" style="text;strokeColor=none;fillColor=none;align=left;verticalAlign=middle;spacingLeft=4;spacingRight=4;overflow=hidden;points=[[0,0.5],[1,0.5]];portConstraint=eastwest;rotatable=0;whiteSpace=wrap;html=1;fillStyle=auto;" parent="K2BsHjy6juh8Ua25t9S5-42" vertex="1">
          <mxGeometry y="170" width="140" height="30" as="geometry" />
        </mxCell>
        <mxCell id="PBAJdNJp6wdwmji5P2WY-41" value="sp: number (gift pass)" style="text;strokeColor=none;fillColor=none;align=left;verticalAlign=middle;spacingLeft=4;spacingRight=4;overflow=hidden;points=[[0,0.5],[1,0.5]];portConstraint=eastwest;rotatable=0;whiteSpace=wrap;html=1;fillStyle=auto;" parent="K2BsHjy6juh8Ua25t9S5-42" vertex="1">
          <mxGeometry y="200" width="140" height="30" as="geometry" />
        </mxCell>
        <mxCell id="KoGxkhm_v9NbhMUGpkAw-1" value="Progress" style="text;strokeColor=default;fillColor=#F2F2F2;align=left;verticalAlign=middle;spacingLeft=4;spacingRight=4;overflow=hidden;points=[[0,0.5],[1,0.5]];portConstraint=eastwest;rotatable=0;whiteSpace=wrap;html=1;" parent="K2BsHjy6juh8Ua25t9S5-42" vertex="1">
          <mxGeometry y="230" width="140" height="20" as="geometry" />
        </mxCell>
        <mxCell id="KoGxkhm_v9NbhMUGpkAw-2" value="bought: boolean" style="text;strokeColor=none;fillColor=none;align=left;verticalAlign=middle;spacingLeft=4;spacingRight=4;overflow=hidden;points=[[0,0.5],[1,0.5]];portConstraint=eastwest;rotatable=0;whiteSpace=wrap;html=1;" parent="K2BsHjy6juh8Ua25t9S5-42" vertex="1">
          <mxGeometry y="250" width="140" height="30" as="geometry" />
        </mxCell>
        <mxCell id="K2BsHjy6juh8Ua25t9S5-44" value="Area" style="swimlane;fontStyle=1;childLayout=stackLayout;horizontal=1;startSize=30;horizontalStack=0;resizeParent=1;resizeParentMax=0;resizeLast=0;collapsible=1;marginBottom=0;whiteSpace=wrap;html=1;fillStyle=auto;strokeColor=#8C8C8C;fillColor=#CCFFCC;" parent="1" vertex="1">
          <mxGeometry x="1180" y="-610" width="140" height="60" as="geometry" />
        </mxCell>
        <mxCell id="K2BsHjy6juh8Ua25t9S5-45" value="name: string" style="text;strokeColor=none;fillColor=none;align=left;verticalAlign=middle;spacingLeft=4;spacingRight=4;overflow=hidden;points=[[0,0.5],[1,0.5]];portConstraint=eastwest;rotatable=0;whiteSpace=wrap;html=1;fillStyle=auto;" parent="K2BsHjy6juh8Ua25t9S5-44" vertex="1">
          <mxGeometry y="30" width="140" height="30" as="geometry" />
        </mxCell>
        <mxCell id="K2BsHjy6juh8Ua25t9S5-46" value="Realm" style="swimlane;fontStyle=1;childLayout=stackLayout;horizontal=1;startSize=30;horizontalStack=0;resizeParent=1;resizeParentMax=0;resizeLast=0;collapsible=1;marginBottom=0;whiteSpace=wrap;html=1;fillStyle=auto;strokeColor=#8C8C8C;fillColor=#CCFFCC;" parent="1" vertex="1">
          <mxGeometry x="1180" y="-850" width="140" height="150" as="geometry" />
        </mxCell>
        <mxCell id="K2BsHjy6juh8Ua25t9S5-47" value="name: string" style="text;strokeColor=none;fillColor=none;align=left;verticalAlign=middle;spacingLeft=4;spacingRight=4;overflow=hidden;points=[[0,0.5],[1,0.5]];portConstraint=eastwest;rotatable=0;whiteSpace=wrap;html=1;fillStyle=auto;" parent="K2BsHjy6juh8Ua25t9S5-46" vertex="1">
          <mxGeometry y="30" width="140" height="30" as="geometry" />
        </mxCell>
        <mxCell id="K2BsHjy6juh8Ua25t9S5-91" value="shortName: string" style="text;strokeColor=none;fillColor=none;align=left;verticalAlign=middle;spacingLeft=4;spacingRight=4;overflow=hidden;points=[[0,0.5],[1,0.5]];portConstraint=eastwest;rotatable=0;whiteSpace=wrap;html=1;fillStyle=auto;" parent="K2BsHjy6juh8Ua25t9S5-46" vertex="1">
          <mxGeometry y="60" width="140" height="30" as="geometry" />
        </mxCell>
        <mxCell id="K2BsHjy6juh8Ua25t9S5-93" value="imageUrl: string" style="text;strokeColor=none;fillColor=none;align=left;verticalAlign=middle;spacingLeft=4;spacingRight=4;overflow=hidden;points=[[0,0.5],[1,0.5]];portConstraint=eastwest;rotatable=0;whiteSpace=wrap;html=1;fillStyle=auto;" parent="K2BsHjy6juh8Ua25t9S5-46" vertex="1">
          <mxGeometry y="90" width="140" height="30" as="geometry" />
        </mxCell>
        <mxCell id="K2BsHjy6juh8Ua25t9S5-92" value="hidden: boolean" style="text;strokeColor=none;fillColor=none;align=left;verticalAlign=middle;spacingLeft=4;spacingRight=4;overflow=hidden;points=[[0,0.5],[1,0.5]];portConstraint=eastwest;rotatable=0;whiteSpace=wrap;html=1;fillStyle=auto;" parent="K2BsHjy6juh8Ua25t9S5-46" vertex="1">
          <mxGeometry y="120" width="140" height="30" as="geometry" />
        </mxCell>
        <mxCell id="K2BsHjy6juh8Ua25t9S5-48" value="Event" style="swimlane;fontStyle=1;childLayout=stackLayout;horizontal=1;startSize=30;horizontalStack=0;resizeParent=1;resizeParentMax=0;resizeLast=0;collapsible=1;marginBottom=0;whiteSpace=wrap;html=1;fillStyle=auto;strokeColor=#8C8C8C;fillColor=#FFCCE6;" parent="1" vertex="1">
          <mxGeometry x="1620" y="-945" width="140" height="150" as="geometry" />
        </mxCell>
        <mxCell id="K2BsHjy6juh8Ua25t9S5-49" value="name: string" style="text;strokeColor=none;fillColor=none;align=left;verticalAlign=middle;spacingLeft=4;spacingRight=4;overflow=hidden;points=[[0,0.5],[1,0.5]];portConstraint=eastwest;rotatable=0;whiteSpace=wrap;html=1;fillStyle=auto;" parent="K2BsHjy6juh8Ua25t9S5-48" vertex="1">
          <mxGeometry y="30" width="140" height="30" as="geometry" />
        </mxCell>
        <mxCell id="2j3xQ5tauhkqNJbTZgJY-1" value="shortName: string" style="text;strokeColor=none;fillColor=none;align=left;verticalAlign=middle;spacingLeft=4;spacingRight=4;overflow=hidden;points=[[0,0.5],[1,0.5]];portConstraint=eastwest;rotatable=0;whiteSpace=wrap;html=1;fillStyle=auto;" parent="K2BsHjy6juh8Ua25t9S5-48" vertex="1">
          <mxGeometry y="60" width="140" height="30" as="geometry" />
        </mxCell>
        <mxCell id="V0djV3tH_5kUoq27LHzC-12" value="imageUrl: string" style="text;strokeColor=none;fillColor=none;align=left;verticalAlign=middle;spacingLeft=4;spacingRight=4;overflow=hidden;points=[[0,0.5],[1,0.5]];portConstraint=eastwest;rotatable=0;whiteSpace=wrap;html=1;fillStyle=auto;" parent="K2BsHjy6juh8Ua25t9S5-48" vertex="1">
          <mxGeometry y="90" width="140" height="30" as="geometry" />
        </mxCell>
        <mxCell id="V0djV3tH_5kUoq27LHzC-13" value="recurring: boolean" style="text;strokeColor=none;fillColor=none;align=left;verticalAlign=middle;spacingLeft=4;spacingRight=4;overflow=hidden;points=[[0,0.5],[1,0.5]];portConstraint=eastwest;rotatable=0;whiteSpace=wrap;html=1;fillStyle=auto;" parent="K2BsHjy6juh8Ua25t9S5-48" vertex="1">
          <mxGeometry y="120" width="140" height="30" as="geometry" />
        </mxCell>
        <mxCell id="K2BsHjy6juh8Ua25t9S5-50" value="ReturningSpirits" style="swimlane;fontStyle=1;childLayout=stackLayout;horizontal=1;startSize=30;horizontalStack=0;resizeParent=1;resizeParentMax=0;resizeLast=0;collapsible=1;marginBottom=0;whiteSpace=wrap;html=1;fillStyle=auto;strokeColor=#8C8C8C;fillColor=#E5CCFF;" parent="1" vertex="1">
          <mxGeometry x="640" y="-580" width="140" height="90" as="geometry" />
        </mxCell>
        <mxCell id="K2BsHjy6juh8Ua25t9S5-51" value="date: Date" style="text;strokeColor=none;fillColor=none;align=left;verticalAlign=middle;spacingLeft=4;spacingRight=4;overflow=hidden;points=[[0,0.5],[1,0.5]];portConstraint=eastwest;rotatable=0;whiteSpace=wrap;html=1;fillStyle=auto;" parent="K2BsHjy6juh8Ua25t9S5-50" vertex="1">
          <mxGeometry y="30" width="140" height="30" as="geometry" />
        </mxCell>
        <mxCell id="V0djV3tH_5kUoq27LHzC-73" value="endDate: Date" style="text;strokeColor=none;fillColor=none;align=left;verticalAlign=middle;spacingLeft=4;spacingRight=4;overflow=hidden;points=[[0,0.5],[1,0.5]];portConstraint=eastwest;rotatable=0;whiteSpace=wrap;html=1;fillStyle=auto;" parent="K2BsHjy6juh8Ua25t9S5-50" vertex="1">
          <mxGeometry y="60" width="140" height="30" as="geometry" />
        </mxCell>
        <mxCell id="K2BsHjy6juh8Ua25t9S5-52" value="ReturningSpirit" style="swimlane;fontStyle=1;childLayout=stackLayout;horizontal=1;startSize=30;horizontalStack=0;resizeParent=1;resizeParentMax=0;resizeLast=0;collapsible=1;marginBottom=0;whiteSpace=wrap;html=1;fillStyle=auto;strokeColor=#8C8C8C;fillColor=#E5CCFF;" parent="1" vertex="1">
          <mxGeometry x="640" y="-410" width="140" height="60" as="geometry" />
        </mxCell>
        <mxCell id="K2BsHjy6juh8Ua25t9S5-54" value="Season" style="swimlane;fontStyle=1;childLayout=stackLayout;horizontal=1;startSize=30;horizontalStack=0;resizeParent=1;resizeParentMax=0;resizeLast=0;collapsible=1;marginBottom=0;whiteSpace=wrap;html=1;fillStyle=auto;strokeColor=#8C8C8C;fillColor=#FFE6CC;" parent="1" vertex="1">
          <mxGeometry x="720" y="-850" width="140" height="240" as="geometry" />
        </mxCell>
        <mxCell id="K2BsHjy6juh8Ua25t9S5-55" value="name: string" style="text;strokeColor=none;fillColor=none;align=left;verticalAlign=middle;spacingLeft=4;spacingRight=4;overflow=hidden;points=[[0,0.5],[1,0.5]];portConstraint=eastwest;rotatable=0;whiteSpace=wrap;html=1;fillStyle=auto;" parent="K2BsHjy6juh8Ua25t9S5-54" vertex="1">
          <mxGeometry y="30" width="140" height="30" as="geometry" />
        </mxCell>
        <mxCell id="V0djV3tH_5kUoq27LHzC-84" value="shortName: string" style="text;strokeColor=none;fillColor=none;align=left;verticalAlign=middle;spacingLeft=4;spacingRight=4;overflow=hidden;points=[[0,0.5],[1,0.5]];portConstraint=eastwest;rotatable=0;whiteSpace=wrap;html=1;fillStyle=auto;" parent="K2BsHjy6juh8Ua25t9S5-54" vertex="1">
          <mxGeometry y="60" width="140" height="30" as="geometry" />
        </mxCell>
        <mxCell id="V0djV3tH_5kUoq27LHzC-83" value="iconUrl: string" style="text;strokeColor=none;fillColor=none;align=left;verticalAlign=middle;spacingLeft=4;spacingRight=4;overflow=hidden;points=[[0,0.5],[1,0.5]];portConstraint=eastwest;rotatable=0;whiteSpace=wrap;html=1;fillStyle=auto;" parent="K2BsHjy6juh8Ua25t9S5-54" vertex="1">
          <mxGeometry y="90" width="140" height="30" as="geometry" />
        </mxCell>
        <mxCell id="V0djV3tH_5kUoq27LHzC-85" value="year: number" style="text;strokeColor=none;fillColor=none;align=left;verticalAlign=middle;spacingLeft=4;spacingRight=4;overflow=hidden;points=[[0,0.5],[1,0.5]];portConstraint=eastwest;rotatable=0;whiteSpace=wrap;html=1;fillStyle=auto;" parent="K2BsHjy6juh8Ua25t9S5-54" vertex="1">
          <mxGeometry y="120" width="140" height="30" as="geometry" />
        </mxCell>
        <mxCell id="V0djV3tH_5kUoq27LHzC-86" value="date: Date" style="text;strokeColor=none;fillColor=none;align=left;verticalAlign=middle;spacingLeft=4;spacingRight=4;overflow=hidden;points=[[0,0.5],[1,0.5]];portConstraint=eastwest;rotatable=0;whiteSpace=wrap;html=1;fillStyle=auto;" parent="K2BsHjy6juh8Ua25t9S5-54" vertex="1">
          <mxGeometry y="150" width="140" height="30" as="geometry" />
        </mxCell>
        <mxCell id="V0djV3tH_5kUoq27LHzC-88" value="endDate: Date" style="text;strokeColor=none;fillColor=none;align=left;verticalAlign=middle;spacingLeft=4;spacingRight=4;overflow=hidden;points=[[0,0.5],[1,0.5]];portConstraint=eastwest;rotatable=0;whiteSpace=wrap;html=1;fillStyle=auto;" parent="K2BsHjy6juh8Ua25t9S5-54" vertex="1">
          <mxGeometry y="180" width="140" height="30" as="geometry" />
        </mxCell>
        <mxCell id="V0djV3tH_5kUoq27LHzC-89" value="number: number" style="text;strokeColor=none;fillColor=none;align=left;verticalAlign=middle;spacingLeft=4;spacingRight=4;overflow=hidden;points=[[0,0.5],[1,0.5]];portConstraint=eastwest;rotatable=0;whiteSpace=wrap;html=1;fillStyle=auto;" parent="K2BsHjy6juh8Ua25t9S5-54" vertex="1">
          <mxGeometry y="210" width="140" height="30" as="geometry" />
        </mxCell>
        <mxCell id="K2BsHjy6juh8Ua25t9S5-56" value="Shop&lt;span style=&quot;color: rgba(0, 0, 0, 0); font-family: monospace; font-size: 0px; text-align: start;&quot;&gt;%3CmxGraphModel%3E%3Croot%3E%3CmxCell%20id%3D%220%22%2F%3E%3CmxCell%20id%3D%221%22%20parent%3D%220%22%2F%3E%3CmxCell%20id%3D%222%22%20value%3D%22IAP%22%20style%3D%22swimlane%3BfontStyle%3D0%3BchildLayout%3DstackLayout%3Bhorizontal%3D1%3BstartSize%3D30%3BhorizontalStack%3D0%3BresizeParent%3D1%3BresizeParentMax%3D0%3BresizeLast%3D0%3Bcollapsible%3D1%3BmarginBottom%3D0%3BwhiteSpace%3Dwrap%3Bhtml%3D1%3BfillStyle%3Dauto%3BstrokeColor%3D%238C8C8C%3BfillColor%3D%23E3E3E3%3B%22%20vertex%3D%221%22%20parent%3D%221%22%3E%3CmxGeometry%20x%3D%22740%22%20y%3D%22250%22%20width%3D%22140%22%20height%3D%2260%22%20as%3D%22geometry%22%2F%3E%3C%2FmxCell%3E%3CmxCell%20id%3D%223%22%20value%3D%22Item%201%22%20style%3D%22text%3BstrokeColor%3Dnone%3BfillColor%3Dnone%3Balign%3Dleft%3BverticalAlign%3Dmiddle%3BspacingLeft%3D4%3BspacingRight%3D4%3Boverflow%3Dhidden%3Bpoints%3D%5B%5B0%2C0.5%5D%2C%5B1%2C0.5%5D%5D%3BportConstraint%3Deastwest%3Brotatable%3D0%3BwhiteSpace%3Dwrap%3Bhtml%3D1%3BfillStyle%3Dauto%3B%22%20vertex%3D%221%22%20parent%3D%222%22%3E%3CmxGeometry%20y%3D%2230%22%20width%3D%22140%22%20height%3D%2230%22%20as%3D%22geometry%22%2F%3E%3C%2FmxCell%3E%3C%2Froot%3E%3C%2FmxGraphModel%3E&lt;/span&gt;" style="swimlane;fontStyle=1;childLayout=stackLayout;horizontal=1;startSize=30;horizontalStack=0;resizeParent=1;resizeParentMax=0;resizeLast=0;collapsible=1;marginBottom=0;whiteSpace=wrap;html=1;fillStyle=auto;strokeColor=#8C8C8C;fillColor=#FFCCCC;" parent="1" vertex="1">
          <mxGeometry x="1010" y="-960" width="140" height="180" as="geometry" />
        </mxCell>
        <mxCell id="KoGxkhm_v9NbhMUGpkAw-10" value="type: ShopType" style="text;strokeColor=none;fillColor=none;align=left;verticalAlign=middle;spacingLeft=4;spacingRight=4;overflow=hidden;points=[[0,0.5],[1,0.5]];portConstraint=eastwest;rotatable=0;whiteSpace=wrap;html=1;fillStyle=auto;" parent="K2BsHjy6juh8Ua25t9S5-56" vertex="1">
          <mxGeometry y="30" width="140" height="30" as="geometry" />
        </mxCell>
        <mxCell id="KoGxkhm_v9NbhMUGpkAw-11" value="name: string" style="text;strokeColor=none;fillColor=none;align=left;verticalAlign=middle;spacingLeft=4;spacingRight=4;overflow=hidden;points=[[0,0.5],[1,0.5]];portConstraint=eastwest;rotatable=0;whiteSpace=wrap;html=1;fillStyle=auto;" parent="K2BsHjy6juh8Ua25t9S5-56" vertex="1">
          <mxGeometry y="60" width="140" height="30" as="geometry" />
        </mxCell>
        <mxCell id="KoGxkhm_v9NbhMUGpkAw-12" value="date: Date" style="text;strokeColor=none;fillColor=none;align=left;verticalAlign=middle;spacingLeft=4;spacingRight=4;overflow=hidden;points=[[0,0.5],[1,0.5]];portConstraint=eastwest;rotatable=0;whiteSpace=wrap;html=1;fillStyle=auto;" parent="K2BsHjy6juh8Ua25t9S5-56" vertex="1">
          <mxGeometry y="90" width="140" height="30" as="geometry" />
        </mxCell>
        <mxCell id="K2BsHjy6juh8Ua25t9S5-57" value="endDate: Date" style="text;strokeColor=none;fillColor=none;align=left;verticalAlign=middle;spacingLeft=4;spacingRight=4;overflow=hidden;points=[[0,0.5],[1,0.5]];portConstraint=eastwest;rotatable=0;whiteSpace=wrap;html=1;fillStyle=auto;" parent="K2BsHjy6juh8Ua25t9S5-56" vertex="1">
          <mxGeometry y="120" width="140" height="30" as="geometry" />
        </mxCell>
        <mxCell id="V0djV3tH_5kUoq27LHzC-3" value="permanent: boolean | string" style="text;strokeColor=none;fillColor=none;align=left;verticalAlign=middle;spacingLeft=4;spacingRight=4;overflow=hidden;points=[[0,0.5],[1,0.5]];portConstraint=eastwest;rotatable=0;whiteSpace=wrap;html=1;fillStyle=auto;" parent="K2BsHjy6juh8Ua25t9S5-56" vertex="1">
          <mxGeometry y="150" width="140" height="30" as="geometry" />
        </mxCell>
        <mxCell id="K2BsHjy6juh8Ua25t9S5-58" value="SpiritTree" style="swimlane;fontStyle=1;childLayout=stackLayout;horizontal=1;startSize=30;horizontalStack=0;resizeParent=1;resizeParentMax=0;resizeLast=0;collapsible=1;marginBottom=0;whiteSpace=wrap;html=1;fillStyle=auto;strokeColor=#8C8C8C;fillColor=#CCFFFF;" parent="1" vertex="1">
          <mxGeometry x="1010" y="-220" width="140" height="90" as="geometry" />
        </mxCell>
        <mxCell id="Gt4cbnQS-56TKg6E3-HL-1" value="name?: string" style="text;strokeColor=none;fillColor=none;align=left;verticalAlign=middle;spacingLeft=4;spacingRight=4;overflow=hidden;points=[[0,0.5],[1,0.5]];portConstraint=eastwest;rotatable=0;whiteSpace=wrap;html=1;fillStyle=auto;" parent="K2BsHjy6juh8Ua25t9S5-58" vertex="1">
          <mxGeometry y="30" width="140" height="30" as="geometry" />
        </mxCell>
        <mxCell id="Gt4cbnQS-56TKg6E3-HL-2" value="draft?: boolean" style="text;strokeColor=none;fillColor=none;align=left;verticalAlign=middle;spacingLeft=4;spacingRight=4;overflow=hidden;points=[[0,0.5],[1,0.5]];portConstraint=eastwest;rotatable=0;whiteSpace=wrap;html=1;fillStyle=auto;" parent="K2BsHjy6juh8Ua25t9S5-58" vertex="1">
          <mxGeometry y="60" width="140" height="30" as="geometry" />
        </mxCell>
        <mxCell id="K2BsHjy6juh8Ua25t9S5-60" value="Spirit" style="swimlane;fontStyle=1;childLayout=stackLayout;horizontal=1;startSize=30;horizontalStack=0;resizeParent=1;resizeParentMax=0;resizeLast=0;collapsible=1;marginBottom=0;whiteSpace=wrap;html=1;fillStyle=auto;strokeColor=#8C8C8C;fillColor=#FFFFCC;" parent="1" vertex="1">
          <mxGeometry x="1010" y="-540" width="140" height="90" as="geometry" />
        </mxCell>
        <mxCell id="K2BsHjy6juh8Ua25t9S5-61" value="name: string" style="text;strokeColor=none;fillColor=none;align=left;verticalAlign=middle;spacingLeft=4;spacingRight=4;overflow=hidden;points=[[0,0.5],[1,0.5]];portConstraint=eastwest;rotatable=0;whiteSpace=wrap;html=1;fillStyle=auto;" parent="K2BsHjy6juh8Ua25t9S5-60" vertex="1">
          <mxGeometry y="30" width="140" height="30" as="geometry" />
        </mxCell>
        <mxCell id="PBAJdNJp6wdwmji5P2WY-10" value="type: SpiritType" style="text;strokeColor=none;fillColor=none;align=left;verticalAlign=middle;spacingLeft=4;spacingRight=4;overflow=hidden;points=[[0,0.5],[1,0.5]];portConstraint=eastwest;rotatable=0;whiteSpace=wrap;html=1;fillStyle=auto;" parent="K2BsHjy6juh8Ua25t9S5-60" vertex="1">
          <mxGeometry y="60" width="140" height="30" as="geometry" />
        </mxCell>
        <mxCell id="K2BsHjy6juh8Ua25t9S5-62" value="TravelingSpirit" style="swimlane;fontStyle=1;childLayout=stackLayout;horizontal=1;startSize=30;horizontalStack=0;resizeParent=1;resizeParentMax=0;resizeLast=0;collapsible=1;marginBottom=0;whiteSpace=wrap;html=1;fillStyle=auto;strokeColor=#8C8C8C;fillColor=#E5CCFF;" parent="1" vertex="1">
          <mxGeometry x="820" y="-445" width="140" height="150" as="geometry" />
        </mxCell>
        <mxCell id="V0djV3tH_5kUoq27LHzC-66" value="date: Date" style="text;strokeColor=none;fillColor=none;align=left;verticalAlign=middle;spacingLeft=4;spacingRight=4;overflow=hidden;points=[[0,0.5],[1,0.5]];portConstraint=eastwest;rotatable=0;whiteSpace=wrap;html=1;fillStyle=auto;" parent="K2BsHjy6juh8Ua25t9S5-62" vertex="1">
          <mxGeometry y="30" width="140" height="30" as="geometry" />
        </mxCell>
        <mxCell id="K2BsHjy6juh8Ua25t9S5-63" value="endDate: Date" style="text;strokeColor=none;fillColor=none;align=left;verticalAlign=middle;spacingLeft=4;spacingRight=4;overflow=hidden;points=[[0,0.5],[1,0.5]];portConstraint=eastwest;rotatable=0;whiteSpace=wrap;html=1;fillStyle=auto;" parent="K2BsHjy6juh8Ua25t9S5-62" vertex="1">
          <mxGeometry y="60" width="140" height="30" as="geometry" />
        </mxCell>
        <mxCell id="V0djV3tH_5kUoq27LHzC-67" value="number: number" style="text;strokeColor=none;fillColor=none;align=left;verticalAlign=middle;spacingLeft=4;spacingRight=4;overflow=hidden;points=[[0,0.5],[1,0.5]];portConstraint=eastwest;rotatable=0;whiteSpace=wrap;html=1;fillStyle=auto;" parent="K2BsHjy6juh8Ua25t9S5-62" vertex="1">
          <mxGeometry y="90" width="140" height="30" as="geometry" />
        </mxCell>
        <mxCell id="V0djV3tH_5kUoq27LHzC-68" value="visit: number" style="text;strokeColor=none;fillColor=none;align=left;verticalAlign=middle;spacingLeft=4;spacingRight=4;overflow=hidden;points=[[0,0.5],[1,0.5]];portConstraint=eastwest;rotatable=0;whiteSpace=wrap;html=1;fillStyle=auto;" parent="K2BsHjy6juh8Ua25t9S5-62" vertex="1">
          <mxGeometry y="120" width="140" height="30" as="geometry" />
        </mxCell>
        <mxCell id="PBAJdNJp6wdwmji5P2WY-6" value="" style="endArrow=none;html=1;rounded=0;edgeStyle=orthogonalEdgeStyle;elbow=vertical;endFill=0;entryX=1;entryY=0.25;entryDx=0;entryDy=0;exitX=0.5;exitY=1;exitDx=0;exitDy=0;" parent="1" source="K2BsHjy6juh8Ua25t9S5-44" target="K2BsHjy6juh8Ua25t9S5-60" edge="1">
          <mxGeometry relative="1" as="geometry">
            <mxPoint x="810" y="-220" as="sourcePoint" />
            <mxPoint x="920" y="-220" as="targetPoint" />
          </mxGeometry>
        </mxCell>
        <mxCell id="PBAJdNJp6wdwmji5P2WY-7" value="&lt;br&gt;" style="edgeLabel;resizable=0;html=1;align=center;verticalAlign=middle;fillStyle=auto;strokeColor=#8C8C8C;fillColor=#E3E3E3;" parent="PBAJdNJp6wdwmji5P2WY-6" connectable="0" vertex="1">
          <mxGeometry relative="1" as="geometry" />
        </mxCell>
        <mxCell id="PBAJdNJp6wdwmji5P2WY-8" value="0..1 area" style="edgeLabel;resizable=0;html=1;align=right;verticalAlign=top;fillStyle=auto;strokeColor=#8C8C8C;fillColor=#E3E3E3;" parent="PBAJdNJp6wdwmji5P2WY-6" connectable="0" vertex="1">
          <mxGeometry x="-1" relative="1" as="geometry" />
        </mxCell>
        <mxCell id="PBAJdNJp6wdwmji5P2WY-9" value="0..* spirits" style="edgeLabel;resizable=0;html=1;align=left;verticalAlign=bottom;fillStyle=auto;strokeColor=#8C8C8C;fillColor=#E3E3E3;fontStyle=1" parent="PBAJdNJp6wdwmji5P2WY-6" connectable="0" vertex="1">
          <mxGeometry x="1" relative="1" as="geometry" />
        </mxCell>
        <mxCell id="PBAJdNJp6wdwmji5P2WY-52" value="" style="group" parent="1" connectable="0" vertex="1">
          <mxGeometry x="80" y="-990" width="220" height="80" as="geometry" />
        </mxCell>
        <mxCell id="PBAJdNJp6wdwmji5P2WY-47" value="Relations in bold are stored in JSON." style="shape=note2;boundedLbl=1;whiteSpace=wrap;html=1;size=11;verticalAlign=top;align=center;" parent="PBAJdNJp6wdwmji5P2WY-52" vertex="1">
          <mxGeometry width="220" height="80" as="geometry" />
        </mxCell>
        <mxCell id="PBAJdNJp6wdwmji5P2WY-48" value="" style="endArrow=classic;html=1;rounded=0;edgeStyle=orthogonalEdgeStyle;elbow=vertical;exitX=0.091;exitY=0.625;exitDx=0;exitDy=0;exitPerimeter=0;entryX=0.909;entryY=0.625;entryDx=0;entryDy=0;entryPerimeter=0;" parent="PBAJdNJp6wdwmji5P2WY-52" source="PBAJdNJp6wdwmji5P2WY-47" target="PBAJdNJp6wdwmji5P2WY-47" edge="1">
          <mxGeometry relative="1" as="geometry">
            <mxPoint x="-40" y="-30" as="sourcePoint" />
            <mxPoint x="240" y="-30" as="targetPoint" />
            <Array as="points">
              <mxPoint x="70" y="50" />
              <mxPoint x="70" y="50" />
            </Array>
          </mxGeometry>
        </mxCell>
        <mxCell id="PBAJdNJp6wdwmji5P2WY-49" value="&lt;br&gt;" style="edgeLabel;resizable=0;html=1;align=center;verticalAlign=middle;fillStyle=auto;strokeColor=#8C8C8C;fillColor=#E3E3E3;" parent="PBAJdNJp6wdwmji5P2WY-48" connectable="0" vertex="1">
          <mxGeometry relative="1" as="geometry" />
        </mxCell>
        <mxCell id="PBAJdNJp6wdwmji5P2WY-50" value="1 shop" style="edgeLabel;resizable=0;html=1;align=left;verticalAlign=bottom;fillStyle=auto;strokeColor=#8C8C8C;fillColor=#E3E3E3;" parent="PBAJdNJp6wdwmji5P2WY-48" connectable="0" vertex="1">
          <mxGeometry x="-1" relative="1" as="geometry" />
        </mxCell>
        <mxCell id="PBAJdNJp6wdwmji5P2WY-51" value="0..* iap" style="edgeLabel;resizable=0;html=1;align=right;verticalAlign=bottom;fillStyle=auto;strokeColor=#8C8C8C;fillColor=#E3E3E3;fontStyle=1" parent="PBAJdNJp6wdwmji5P2WY-48" connectable="0" vertex="1">
          <mxGeometry x="1" relative="1" as="geometry" />
        </mxCell>
        <mxCell id="KoGxkhm_v9NbhMUGpkAw-13" value="EventInstance" style="swimlane;fontStyle=1;childLayout=stackLayout;horizontal=1;startSize=30;horizontalStack=0;resizeParent=1;resizeParentMax=0;resizeLast=0;collapsible=1;marginBottom=0;whiteSpace=wrap;html=1;fillStyle=auto;strokeColor=#8C8C8C;fillColor=#FFCCE6;" parent="1" vertex="1">
          <mxGeometry x="1340" y="-960" width="150" height="180" as="geometry" />
        </mxCell>
        <mxCell id="2j3xQ5tauhkqNJbTZgJY-2" value="name: string" style="text;strokeColor=none;fillColor=none;align=left;verticalAlign=middle;spacingLeft=4;spacingRight=4;overflow=hidden;points=[[0,0.5],[1,0.5]];portConstraint=eastwest;rotatable=0;whiteSpace=wrap;html=1;fillStyle=auto;" parent="KoGxkhm_v9NbhMUGpkAw-13" vertex="1">
          <mxGeometry y="30" width="150" height="30" as="geometry" />
        </mxCell>
        <mxCell id="2j3xQ5tauhkqNJbTZgJY-3" value="shortName: string" style="text;strokeColor=none;fillColor=none;align=left;verticalAlign=middle;spacingLeft=4;spacingRight=4;overflow=hidden;points=[[0,0.5],[1,0.5]];portConstraint=eastwest;rotatable=0;whiteSpace=wrap;html=1;fillStyle=auto;" parent="KoGxkhm_v9NbhMUGpkAw-13" vertex="1">
          <mxGeometry y="60" width="150" height="30" as="geometry" />
        </mxCell>
        <mxCell id="KoGxkhm_v9NbhMUGpkAw-14" value="date: Date" style="text;strokeColor=none;fillColor=none;align=left;verticalAlign=middle;spacingLeft=4;spacingRight=4;overflow=hidden;points=[[0,0.5],[1,0.5]];portConstraint=eastwest;rotatable=0;whiteSpace=wrap;html=1;fillStyle=auto;" parent="KoGxkhm_v9NbhMUGpkAw-13" vertex="1">
          <mxGeometry y="90" width="150" height="30" as="geometry" />
        </mxCell>
        <mxCell id="V0djV3tH_5kUoq27LHzC-15" value="endDate: Date" style="text;strokeColor=none;fillColor=none;align=left;verticalAlign=middle;spacingLeft=4;spacingRight=4;overflow=hidden;points=[[0,0.5],[1,0.5]];portConstraint=eastwest;rotatable=0;whiteSpace=wrap;html=1;fillStyle=auto;" parent="KoGxkhm_v9NbhMUGpkAw-13" vertex="1">
          <mxGeometry y="120" width="150" height="30" as="geometry" />
        </mxCell>
        <mxCell id="V0djV3tH_5kUoq27LHzC-16" value="number: number" style="text;strokeColor=none;fillColor=none;align=left;verticalAlign=middle;spacingLeft=4;spacingRight=4;overflow=hidden;points=[[0,0.5],[1,0.5]];portConstraint=eastwest;rotatable=0;whiteSpace=wrap;html=1;fillStyle=auto;" parent="KoGxkhm_v9NbhMUGpkAw-13" vertex="1">
          <mxGeometry y="150" width="150" height="30" as="geometry" />
        </mxCell>
        <mxCell id="KoGxkhm_v9NbhMUGpkAw-79" value="" style="endArrow=none;html=1;rounded=0;edgeStyle=orthogonalEdgeStyle;elbow=vertical;endFill=0;" parent="1" source="KoGxkhm_v9NbhMUGpkAw-13" target="K2BsHjy6juh8Ua25t9S5-56" edge="1">
          <mxGeometry relative="1" as="geometry">
            <mxPoint x="850" y="-655" as="sourcePoint" />
            <mxPoint x="750" y="-415" as="targetPoint" />
          </mxGeometry>
        </mxCell>
        <mxCell id="KoGxkhm_v9NbhMUGpkAw-80" value="&lt;br&gt;" style="edgeLabel;resizable=0;html=1;align=center;verticalAlign=middle;fillStyle=auto;strokeColor=#8C8C8C;fillColor=#E3E3E3;" parent="KoGxkhm_v9NbhMUGpkAw-79" connectable="0" vertex="1">
          <mxGeometry relative="1" as="geometry" />
        </mxCell>
        <mxCell id="KoGxkhm_v9NbhMUGpkAw-81" value="1 event" style="edgeLabel;resizable=0;html=1;align=right;verticalAlign=bottom;fillStyle=auto;strokeColor=#8C8C8C;fillColor=#E3E3E3;" parent="KoGxkhm_v9NbhMUGpkAw-79" connectable="0" vertex="1">
          <mxGeometry x="-1" relative="1" as="geometry" />
        </mxCell>
        <mxCell id="KoGxkhm_v9NbhMUGpkAw-82" value="0..* shops" style="edgeLabel;resizable=0;html=1;align=left;verticalAlign=bottom;fillStyle=auto;strokeColor=#8C8C8C;fillColor=#E3E3E3;fontStyle=1" parent="KoGxkhm_v9NbhMUGpkAw-79" connectable="0" vertex="1">
          <mxGeometry x="1" relative="1" as="geometry" />
        </mxCell>
        <mxCell id="KoGxkhm_v9NbhMUGpkAw-83" value="" style="endArrow=none;html=1;rounded=0;edgeStyle=orthogonalEdgeStyle;elbow=vertical;endFill=0;exitX=0;exitY=0.5;exitDx=0;exitDy=0;entryX=1;entryY=0.5;entryDx=0;entryDy=0;" parent="1" source="K2BsHjy6juh8Ua25t9S5-56" target="K2BsHjy6juh8Ua25t9S5-42" edge="1">
          <mxGeometry relative="1" as="geometry">
            <mxPoint x="440" y="-660" as="sourcePoint" />
            <mxPoint x="250" y="-660" as="targetPoint" />
          </mxGeometry>
        </mxCell>
        <mxCell id="KoGxkhm_v9NbhMUGpkAw-84" value="&lt;br&gt;" style="edgeLabel;resizable=0;html=1;align=center;verticalAlign=middle;fillStyle=auto;strokeColor=#8C8C8C;fillColor=#E3E3E3;" parent="KoGxkhm_v9NbhMUGpkAw-83" connectable="0" vertex="1">
          <mxGeometry relative="1" as="geometry" />
        </mxCell>
        <mxCell id="KoGxkhm_v9NbhMUGpkAw-85" value="1 shop" style="edgeLabel;resizable=0;html=1;align=right;verticalAlign=bottom;fillStyle=auto;strokeColor=#8C8C8C;fillColor=#E3E3E3;" parent="KoGxkhm_v9NbhMUGpkAw-83" connectable="0" vertex="1">
          <mxGeometry x="-1" relative="1" as="geometry" />
        </mxCell>
        <mxCell id="KoGxkhm_v9NbhMUGpkAw-86" value="0..* iap" style="edgeLabel;resizable=0;html=1;align=left;verticalAlign=bottom;fillStyle=auto;strokeColor=#8C8C8C;fillColor=#E3E3E3;fontStyle=1" parent="KoGxkhm_v9NbhMUGpkAw-83" connectable="0" vertex="1">
          <mxGeometry x="1" relative="1" as="geometry" />
        </mxCell>
        <mxCell id="KoGxkhm_v9NbhMUGpkAw-87" value="" style="endArrow=none;html=1;rounded=0;edgeStyle=orthogonalEdgeStyle;elbow=vertical;endFill=0;" parent="1" source="K2BsHjy6juh8Ua25t9S5-42" target="K2BsHjy6juh8Ua25t9S5-1" edge="1">
          <mxGeometry relative="1" as="geometry">
            <mxPoint x="180" y="-520" as="sourcePoint" />
            <mxPoint x="180" y="-410" as="targetPoint" />
          </mxGeometry>
        </mxCell>
        <mxCell id="KoGxkhm_v9NbhMUGpkAw-88" value="&lt;br&gt;" style="edgeLabel;resizable=0;html=1;align=center;verticalAlign=middle;fillStyle=auto;strokeColor=#8C8C8C;fillColor=#E3E3E3;" parent="KoGxkhm_v9NbhMUGpkAw-87" connectable="0" vertex="1">
          <mxGeometry relative="1" as="geometry" />
        </mxCell>
        <mxCell id="KoGxkhm_v9NbhMUGpkAw-89" value="0..* iaps" style="edgeLabel;resizable=0;html=1;align=left;verticalAlign=top;fillStyle=auto;strokeColor=#8C8C8C;fillColor=#E3E3E3;" parent="KoGxkhm_v9NbhMUGpkAw-87" connectable="0" vertex="1">
          <mxGeometry x="-1" relative="1" as="geometry" />
        </mxCell>
        <mxCell id="KoGxkhm_v9NbhMUGpkAw-90" value="0..* items" style="edgeLabel;resizable=0;html=1;align=left;verticalAlign=bottom;fillStyle=auto;strokeColor=#8C8C8C;fillColor=#E3E3E3;fontStyle=1" parent="KoGxkhm_v9NbhMUGpkAw-87" connectable="0" vertex="1">
          <mxGeometry x="1" relative="1" as="geometry" />
        </mxCell>
        <mxCell id="KoGxkhm_v9NbhMUGpkAw-91" value="" style="endArrow=none;html=1;rounded=0;edgeStyle=orthogonalEdgeStyle;elbow=vertical;endFill=0;exitX=0.25;exitY=0;exitDx=0;exitDy=0;entryX=0.25;entryY=1;entryDx=0;entryDy=0;" parent="1" source="K2BsHjy6juh8Ua25t9S5-38" target="K2BsHjy6juh8Ua25t9S5-1" edge="1">
          <mxGeometry relative="1" as="geometry">
            <mxPoint x="360" y="-285" as="sourcePoint" />
            <mxPoint x="250" y="-285" as="targetPoint" />
          </mxGeometry>
        </mxCell>
        <mxCell id="KoGxkhm_v9NbhMUGpkAw-92" value="&lt;br&gt;" style="edgeLabel;resizable=0;html=1;align=center;verticalAlign=middle;fillStyle=auto;strokeColor=#8C8C8C;fillColor=#E3E3E3;" parent="KoGxkhm_v9NbhMUGpkAw-91" connectable="0" vertex="1">
          <mxGeometry relative="1" as="geometry" />
        </mxCell>
        <mxCell id="KoGxkhm_v9NbhMUGpkAw-93" value="0..* nodes" style="edgeLabel;resizable=0;html=1;align=right;verticalAlign=bottom;fillStyle=auto;strokeColor=#8C8C8C;fillColor=#E3E3E3;" parent="KoGxkhm_v9NbhMUGpkAw-91" connectable="0" vertex="1">
          <mxGeometry x="-1" relative="1" as="geometry" />
        </mxCell>
        <mxCell id="KoGxkhm_v9NbhMUGpkAw-94" value="1 item" style="edgeLabel;resizable=0;html=1;align=right;verticalAlign=top;fillStyle=auto;strokeColor=#8C8C8C;fillColor=#E3E3E3;fontStyle=1" parent="KoGxkhm_v9NbhMUGpkAw-91" connectable="0" vertex="1">
          <mxGeometry x="1" relative="1" as="geometry" />
        </mxCell>
        <mxCell id="KoGxkhm_v9NbhMUGpkAw-95" value="" style="endArrow=none;html=1;rounded=0;edgeStyle=orthogonalEdgeStyle;elbow=vertical;endFill=0;exitX=0;exitY=0.5;exitDx=0;exitDy=0;entryX=1;entryY=0.5;entryDx=0;entryDy=0;" parent="1" source="K2BsHjy6juh8Ua25t9S5-58" target="K2BsHjy6juh8Ua25t9S5-38" edge="1">
          <mxGeometry relative="1" as="geometry">
            <mxPoint x="920" y="-290" as="sourcePoint" />
            <mxPoint x="430" y="-325" as="targetPoint" />
          </mxGeometry>
        </mxCell>
        <mxCell id="KoGxkhm_v9NbhMUGpkAw-96" value="&lt;br&gt;" style="edgeLabel;resizable=0;html=1;align=center;verticalAlign=middle;fillStyle=auto;strokeColor=#8C8C8C;fillColor=#E3E3E3;" parent="KoGxkhm_v9NbhMUGpkAw-95" connectable="0" vertex="1">
          <mxGeometry relative="1" as="geometry" />
        </mxCell>
        <mxCell id="KoGxkhm_v9NbhMUGpkAw-97" value="0..1 spiritTree" style="edgeLabel;resizable=0;html=1;align=right;verticalAlign=top;fillStyle=auto;strokeColor=#8C8C8C;fillColor=#E3E3E3;" parent="KoGxkhm_v9NbhMUGpkAw-95" connectable="0" vertex="1">
          <mxGeometry x="-1" relative="1" as="geometry" />
        </mxCell>
        <mxCell id="KoGxkhm_v9NbhMUGpkAw-98" value="0..&lt;span style=&quot;background-color: light-dark(#ffffff, var(--ge-dark-color, #121212)); color: light-dark(rgb(0, 0, 0), rgb(255, 255, 255));&quot;&gt;1 node&lt;/span&gt;" style="edgeLabel;resizable=0;html=1;align=left;verticalAlign=bottom;fillStyle=auto;strokeColor=#8C8C8C;fillColor=#E3E3E3;fontStyle=1;" parent="KoGxkhm_v9NbhMUGpkAw-95" connectable="0" vertex="1">
          <mxGeometry x="1" relative="1" as="geometry" />
        </mxCell>
        <mxCell id="KoGxkhm_v9NbhMUGpkAw-99" value="" style="endArrow=none;html=1;rounded=0;edgeStyle=orthogonalEdgeStyle;elbow=vertical;endFill=0;exitX=0.25;exitY=1;exitDx=0;exitDy=0;entryX=0.75;entryY=1;entryDx=0;entryDy=0;" parent="1" source="K2BsHjy6juh8Ua25t9S5-38" target="K2BsHjy6juh8Ua25t9S5-38" edge="1">
          <mxGeometry relative="1" as="geometry">
            <mxPoint x="455" y="-180" as="sourcePoint" />
            <mxPoint x="525" y="-180" as="targetPoint" />
            <Array as="points">
              <mxPoint x="455" y="-100" />
              <mxPoint x="525" y="-100" />
            </Array>
          </mxGeometry>
        </mxCell>
        <mxCell id="KoGxkhm_v9NbhMUGpkAw-100" value="&lt;br&gt;" style="edgeLabel;resizable=0;html=1;align=center;verticalAlign=middle;fillStyle=auto;strokeColor=#8C8C8C;fillColor=#E3E3E3;" parent="KoGxkhm_v9NbhMUGpkAw-99" connectable="0" vertex="1">
          <mxGeometry relative="1" as="geometry" />
        </mxCell>
        <mxCell id="KoGxkhm_v9NbhMUGpkAw-101" value="0..1 prev" style="edgeLabel;resizable=0;html=1;align=right;verticalAlign=top;fillStyle=auto;strokeColor=#8C8C8C;fillColor=#E3E3E3;" parent="KoGxkhm_v9NbhMUGpkAw-99" connectable="0" vertex="1">
          <mxGeometry x="-1" relative="1" as="geometry" />
        </mxCell>
        <mxCell id="KoGxkhm_v9NbhMUGpkAw-102" value="0..1 nw/n/ne" style="edgeLabel;resizable=0;html=1;align=left;verticalAlign=top;fillStyle=auto;strokeColor=#8C8C8C;fillColor=#E3E3E3;fontStyle=1" parent="KoGxkhm_v9NbhMUGpkAw-99" connectable="0" vertex="1">
          <mxGeometry x="1" relative="1" as="geometry" />
        </mxCell>
        <mxCell id="KoGxkhm_v9NbhMUGpkAw-103" value="" style="endArrow=none;html=1;rounded=0;edgeStyle=orthogonalEdgeStyle;elbow=vertical;endFill=0;" parent="1" source="K2BsHjy6juh8Ua25t9S5-46" target="K2BsHjy6juh8Ua25t9S5-44" edge="1">
          <mxGeometry relative="1" as="geometry">
            <mxPoint x="800" y="-230" as="sourcePoint" />
            <mxPoint x="910" y="-230" as="targetPoint" />
          </mxGeometry>
        </mxCell>
        <mxCell id="KoGxkhm_v9NbhMUGpkAw-104" value="&lt;br&gt;" style="edgeLabel;resizable=0;html=1;align=center;verticalAlign=middle;fillStyle=auto;strokeColor=#8C8C8C;fillColor=#E3E3E3;" parent="KoGxkhm_v9NbhMUGpkAw-103" connectable="0" vertex="1">
          <mxGeometry relative="1" as="geometry" />
        </mxCell>
        <mxCell id="KoGxkhm_v9NbhMUGpkAw-105" value="1 realm" style="edgeLabel;resizable=0;html=1;align=left;verticalAlign=top;fillStyle=auto;strokeColor=#8C8C8C;fillColor=#E3E3E3;" parent="KoGxkhm_v9NbhMUGpkAw-103" connectable="0" vertex="1">
          <mxGeometry x="-1" relative="1" as="geometry" />
        </mxCell>
        <mxCell id="KoGxkhm_v9NbhMUGpkAw-106" value="0..* areas" style="edgeLabel;resizable=0;html=1;align=left;verticalAlign=bottom;fillStyle=auto;strokeColor=#8C8C8C;fillColor=#E3E3E3;fontStyle=1" parent="KoGxkhm_v9NbhMUGpkAw-103" connectable="0" vertex="1">
          <mxGeometry x="1" relative="1" as="geometry" />
        </mxCell>
        <mxCell id="V0djV3tH_5kUoq27LHzC-8" value="" style="endArrow=none;html=1;rounded=0;edgeStyle=orthogonalEdgeStyle;elbow=vertical;endFill=0;" parent="1" source="K2BsHjy6juh8Ua25t9S5-48" target="KoGxkhm_v9NbhMUGpkAw-13" edge="1">
          <mxGeometry relative="1" as="geometry">
            <mxPoint x="1300" y="-533.86" as="sourcePoint" />
            <mxPoint x="1190" y="-533.86" as="targetPoint" />
          </mxGeometry>
        </mxCell>
        <mxCell id="V0djV3tH_5kUoq27LHzC-9" value="&lt;br&gt;" style="edgeLabel;resizable=0;html=1;align=center;verticalAlign=middle;fillStyle=auto;strokeColor=#8C8C8C;fillColor=#E3E3E3;" parent="V0djV3tH_5kUoq27LHzC-8" connectable="0" vertex="1">
          <mxGeometry relative="1" as="geometry" />
        </mxCell>
        <mxCell id="V0djV3tH_5kUoq27LHzC-10" value="1 event" style="edgeLabel;resizable=0;html=1;align=right;verticalAlign=bottom;fillStyle=auto;strokeColor=#8C8C8C;fillColor=#E3E3E3;" parent="V0djV3tH_5kUoq27LHzC-8" connectable="0" vertex="1">
          <mxGeometry x="-1" relative="1" as="geometry" />
        </mxCell>
        <mxCell id="V0djV3tH_5kUoq27LHzC-11" value="1..* instances" style="edgeLabel;resizable=0;html=1;align=left;verticalAlign=bottom;fillStyle=auto;strokeColor=#8C8C8C;fillColor=#E3E3E3;fontStyle=1" parent="V0djV3tH_5kUoq27LHzC-8" connectable="0" vertex="1">
          <mxGeometry x="1" relative="1" as="geometry" />
        </mxCell>
        <mxCell id="V0djV3tH_5kUoq27LHzC-18" value="EventInstanceSpirit" style="swimlane;fontStyle=1;childLayout=stackLayout;horizontal=1;startSize=30;horizontalStack=0;resizeParent=1;resizeParentMax=0;resizeLast=0;collapsible=1;marginBottom=0;whiteSpace=wrap;html=1;fillStyle=auto;strokeColor=#8C8C8C;fillColor=#FFCCE6;" parent="1" vertex="1">
          <mxGeometry x="1520" y="-750" width="140" height="60" as="geometry" />
        </mxCell>
        <mxCell id="V0djV3tH_5kUoq27LHzC-19" value="name?: string" style="text;strokeColor=none;fillColor=none;align=left;verticalAlign=middle;spacingLeft=4;spacingRight=4;overflow=hidden;points=[[0,0.5],[1,0.5]];portConstraint=eastwest;rotatable=0;whiteSpace=wrap;html=1;fillStyle=auto;" parent="V0djV3tH_5kUoq27LHzC-18" vertex="1">
          <mxGeometry y="30" width="140" height="30" as="geometry" />
        </mxCell>
        <mxCell id="V0djV3tH_5kUoq27LHzC-26" value="" style="endArrow=none;html=1;rounded=0;edgeStyle=orthogonalEdgeStyle;elbow=vertical;endFill=0;" parent="1" source="K2BsHjy6juh8Ua25t9S5-58" target="V0djV3tH_5kUoq27LHzC-18" edge="1">
          <mxGeometry relative="1" as="geometry">
            <mxPoint x="697.5" y="-485" as="sourcePoint" />
            <mxPoint x="682.5" y="-585" as="targetPoint" />
          </mxGeometry>
        </mxCell>
        <mxCell id="V0djV3tH_5kUoq27LHzC-27" value="&lt;br&gt;" style="edgeLabel;resizable=0;html=1;align=center;verticalAlign=middle;fillStyle=auto;strokeColor=#8C8C8C;fillColor=#E3E3E3;" parent="V0djV3tH_5kUoq27LHzC-26" connectable="0" vertex="1">
          <mxGeometry relative="1" as="geometry" />
        </mxCell>
        <mxCell id="V0djV3tH_5kUoq27LHzC-28" value="1 tree" style="edgeLabel;resizable=0;html=1;align=left;verticalAlign=bottom;fillStyle=auto;strokeColor=#8C8C8C;fillColor=#E3E3E3;fontStyle=1" parent="V0djV3tH_5kUoq27LHzC-26" connectable="0" vertex="1">
          <mxGeometry x="-1" relative="1" as="geometry" />
        </mxCell>
        <mxCell id="V0djV3tH_5kUoq27LHzC-29" value="0..1 eventInstanceSpirit" style="edgeLabel;resizable=0;html=1;align=left;verticalAlign=top;fillStyle=auto;strokeColor=#8C8C8C;fillColor=#E3E3E3;fontStyle=0" parent="V0djV3tH_5kUoq27LHzC-26" connectable="0" vertex="1">
          <mxGeometry x="1" relative="1" as="geometry" />
        </mxCell>
        <mxCell id="V0djV3tH_5kUoq27LHzC-30" value="" style="endArrow=none;html=1;rounded=0;edgeStyle=orthogonalEdgeStyle;elbow=vertical;endFill=0;entryX=1;entryY=0.75;entryDx=0;entryDy=0;exitX=0.5;exitY=0;exitDx=0;exitDy=0;" parent="1" source="V0djV3tH_5kUoq27LHzC-18" target="KoGxkhm_v9NbhMUGpkAw-13" edge="1">
          <mxGeometry relative="1" as="geometry">
            <mxPoint x="570" y="-480" as="sourcePoint" />
            <mxPoint x="760" y="-480" as="targetPoint" />
          </mxGeometry>
        </mxCell>
        <mxCell id="V0djV3tH_5kUoq27LHzC-31" value="&lt;br&gt;" style="edgeLabel;resizable=0;html=1;align=center;verticalAlign=middle;fillStyle=auto;strokeColor=#8C8C8C;fillColor=#E3E3E3;" parent="V0djV3tH_5kUoq27LHzC-30" connectable="0" vertex="1">
          <mxGeometry relative="1" as="geometry" />
        </mxCell>
        <mxCell id="V0djV3tH_5kUoq27LHzC-32" value="0..* spirits" style="edgeLabel;resizable=0;html=1;align=left;verticalAlign=bottom;fillStyle=auto;strokeColor=#8C8C8C;fillColor=#E3E3E3;fontStyle=1" parent="V0djV3tH_5kUoq27LHzC-30" connectable="0" vertex="1">
          <mxGeometry x="-1" relative="1" as="geometry" />
        </mxCell>
        <mxCell id="V0djV3tH_5kUoq27LHzC-33" value="1 eventInstance" style="edgeLabel;resizable=0;html=1;align=left;verticalAlign=bottom;fillStyle=auto;strokeColor=#8C8C8C;fillColor=#E3E3E3;fontStyle=0" parent="V0djV3tH_5kUoq27LHzC-30" connectable="0" vertex="1">
          <mxGeometry x="1" relative="1" as="geometry" />
        </mxCell>
        <mxCell id="V0djV3tH_5kUoq27LHzC-34" value="" style="endArrow=none;html=1;rounded=0;edgeStyle=orthogonalEdgeStyle;elbow=vertical;endFill=0;entryX=0.25;entryY=1;entryDx=0;entryDy=0;exitX=1;exitY=0.5;exitDx=0;exitDy=0;" parent="1" source="K2BsHjy6juh8Ua25t9S5-60" target="V0djV3tH_5kUoq27LHzC-18" edge="1">
          <mxGeometry relative="1" as="geometry">
            <mxPoint x="580" y="-470" as="sourcePoint" />
            <mxPoint x="770" y="-470" as="targetPoint" />
          </mxGeometry>
        </mxCell>
        <mxCell id="V0djV3tH_5kUoq27LHzC-35" value="&lt;br&gt;" style="edgeLabel;resizable=0;html=1;align=center;verticalAlign=middle;fillStyle=auto;strokeColor=#8C8C8C;fillColor=#E3E3E3;" parent="V0djV3tH_5kUoq27LHzC-34" connectable="0" vertex="1">
          <mxGeometry relative="1" as="geometry" />
        </mxCell>
        <mxCell id="V0djV3tH_5kUoq27LHzC-36" value="1 spirit" style="edgeLabel;resizable=0;html=1;align=left;verticalAlign=bottom;fillStyle=auto;strokeColor=#8C8C8C;fillColor=#E3E3E3;fontStyle=1" parent="V0djV3tH_5kUoq27LHzC-34" connectable="0" vertex="1">
          <mxGeometry x="-1" relative="1" as="geometry" />
        </mxCell>
        <mxCell id="V0djV3tH_5kUoq27LHzC-37" value="0..* events" style="edgeLabel;resizable=0;html=1;align=right;verticalAlign=top;fillStyle=auto;strokeColor=#8C8C8C;fillColor=#E3E3E3;fontStyle=0" parent="V0djV3tH_5kUoq27LHzC-34" connectable="0" vertex="1">
          <mxGeometry x="1" relative="1" as="geometry" />
        </mxCell>
        <mxCell id="V0djV3tH_5kUoq27LHzC-38" value="" style="endArrow=none;html=1;rounded=0;edgeStyle=orthogonalEdgeStyle;elbow=vertical;endFill=0;jumpStyle=none;exitX=0.5;exitY=1;exitDx=0;exitDy=0;entryX=0.5;entryY=0;entryDx=0;entryDy=0;" parent="1" source="K2BsHjy6juh8Ua25t9S5-56" target="K2BsHjy6juh8Ua25t9S5-60" edge="1">
          <mxGeometry relative="1" as="geometry">
            <mxPoint x="720" y="-410" as="sourcePoint" />
            <mxPoint x="1170" y="-620" as="targetPoint" />
          </mxGeometry>
        </mxCell>
        <mxCell id="V0djV3tH_5kUoq27LHzC-39" value="&lt;br&gt;" style="edgeLabel;resizable=0;html=1;align=center;verticalAlign=middle;fillStyle=auto;strokeColor=#8C8C8C;fillColor=#E3E3E3;" parent="V0djV3tH_5kUoq27LHzC-38" connectable="0" vertex="1">
          <mxGeometry relative="1" as="geometry">
            <mxPoint x="320" y="-4" as="offset" />
          </mxGeometry>
        </mxCell>
        <mxCell id="V0djV3tH_5kUoq27LHzC-40" value="0..* shops" style="edgeLabel;resizable=0;html=1;align=left;verticalAlign=top;fillStyle=auto;strokeColor=#8C8C8C;fillColor=#E3E3E3;" parent="V0djV3tH_5kUoq27LHzC-38" connectable="0" vertex="1">
          <mxGeometry x="-1" relative="1" as="geometry" />
        </mxCell>
        <mxCell id="V0djV3tH_5kUoq27LHzC-41" value="0..1 spirit" style="edgeLabel;resizable=0;html=1;align=left;verticalAlign=bottom;fillStyle=auto;strokeColor=#8C8C8C;fillColor=#E3E3E3;fontStyle=1" parent="V0djV3tH_5kUoq27LHzC-38" connectable="0" vertex="1">
          <mxGeometry x="1" relative="1" as="geometry">
            <mxPoint x="-30" y="-10" as="offset" />
          </mxGeometry>
        </mxCell>
        <mxCell id="V0djV3tH_5kUoq27LHzC-46" value="" style="endArrow=none;html=1;rounded=0;edgeStyle=orthogonalEdgeStyle;elbow=vertical;endFill=0;jumpStyle=none;exitX=0.25;exitY=1;exitDx=0;exitDy=0;entryX=1;entryY=0.5;entryDx=0;entryDy=0;" parent="1" source="K2BsHjy6juh8Ua25t9S5-56" target="K2BsHjy6juh8Ua25t9S5-54" edge="1">
          <mxGeometry relative="1" as="geometry">
            <mxPoint x="840" y="-599" as="sourcePoint" />
            <mxPoint x="840" y="-360" as="targetPoint" />
          </mxGeometry>
        </mxCell>
        <mxCell id="V0djV3tH_5kUoq27LHzC-47" value="&lt;br&gt;" style="edgeLabel;resizable=0;html=1;align=center;verticalAlign=middle;fillStyle=auto;strokeColor=#8C8C8C;fillColor=#E3E3E3;" parent="V0djV3tH_5kUoq27LHzC-46" connectable="0" vertex="1">
          <mxGeometry relative="1" as="geometry">
            <mxPoint x="320" y="-4" as="offset" />
          </mxGeometry>
        </mxCell>
        <mxCell id="V0djV3tH_5kUoq27LHzC-48" value="0..* shops" style="edgeLabel;resizable=0;html=1;align=right;verticalAlign=top;fillStyle=auto;strokeColor=#8C8C8C;fillColor=#E3E3E3;fontStyle=1" parent="V0djV3tH_5kUoq27LHzC-46" connectable="0" vertex="1">
          <mxGeometry x="-1" relative="1" as="geometry" />
        </mxCell>
        <mxCell id="V0djV3tH_5kUoq27LHzC-49" value="0..1 season" style="edgeLabel;resizable=0;html=1;align=left;verticalAlign=bottom;fillStyle=auto;strokeColor=#8C8C8C;fillColor=#E3E3E3;fontStyle=0" parent="V0djV3tH_5kUoq27LHzC-46" connectable="0" vertex="1">
          <mxGeometry x="1" relative="1" as="geometry" />
        </mxCell>
        <mxCell id="V0djV3tH_5kUoq27LHzC-50" value="" style="endArrow=none;html=1;rounded=0;edgeStyle=orthogonalEdgeStyle;elbow=vertical;endFill=0;" parent="1" source="K2BsHjy6juh8Ua25t9S5-58" target="K2BsHjy6juh8Ua25t9S5-60" edge="1">
          <mxGeometry relative="1" as="geometry">
            <mxPoint x="400" y="-565" as="sourcePoint" />
            <mxPoint x="730" y="-560" as="targetPoint" />
          </mxGeometry>
        </mxCell>
        <mxCell id="V0djV3tH_5kUoq27LHzC-51" value="&lt;br&gt;" style="edgeLabel;resizable=0;html=1;align=center;verticalAlign=middle;fillStyle=auto;strokeColor=#8C8C8C;fillColor=#E3E3E3;" parent="V0djV3tH_5kUoq27LHzC-50" connectable="0" vertex="1">
          <mxGeometry relative="1" as="geometry" />
        </mxCell>
        <mxCell id="V0djV3tH_5kUoq27LHzC-52" value="0..1 tree" style="edgeLabel;resizable=0;html=1;align=center;verticalAlign=bottom;fillStyle=auto;strokeColor=#8C8C8C;fillColor=#E3E3E3;fontStyle=1" parent="V0djV3tH_5kUoq27LHzC-50" connectable="0" vertex="1">
          <mxGeometry x="-1" relative="1" as="geometry" />
        </mxCell>
        <mxCell id="V0djV3tH_5kUoq27LHzC-53" value="0..1 spirit" style="edgeLabel;resizable=0;html=1;align=center;verticalAlign=top;fillStyle=auto;strokeColor=#8C8C8C;fillColor=#E3E3E3;fontStyle=0" parent="V0djV3tH_5kUoq27LHzC-50" connectable="0" vertex="1">
          <mxGeometry x="1" relative="1" as="geometry" />
        </mxCell>
        <mxCell id="V0djV3tH_5kUoq27LHzC-54" value="" style="endArrow=none;html=1;rounded=0;edgeStyle=orthogonalEdgeStyle;elbow=vertical;endFill=0;jumpStyle=none;exitX=0.25;exitY=0;exitDx=0;exitDy=0;entryX=1;entryY=0.75;entryDx=0;entryDy=0;" parent="1" source="K2BsHjy6juh8Ua25t9S5-60" target="K2BsHjy6juh8Ua25t9S5-54" edge="1">
          <mxGeometry relative="1" as="geometry">
            <mxPoint x="635" y="-460" as="sourcePoint" />
            <mxPoint x="680" y="-340" as="targetPoint" />
          </mxGeometry>
        </mxCell>
        <mxCell id="V0djV3tH_5kUoq27LHzC-55" value="&lt;br&gt;" style="edgeLabel;resizable=0;html=1;align=center;verticalAlign=middle;fillStyle=auto;strokeColor=#8C8C8C;fillColor=#E3E3E3;" parent="V0djV3tH_5kUoq27LHzC-54" connectable="0" vertex="1">
          <mxGeometry relative="1" as="geometry">
            <mxPoint x="320" y="-4" as="offset" />
          </mxGeometry>
        </mxCell>
        <mxCell id="V0djV3tH_5kUoq27LHzC-56" value="0..* spirits" style="edgeLabel;resizable=0;html=1;align=right;verticalAlign=bottom;fillStyle=auto;strokeColor=#8C8C8C;fillColor=#E3E3E3;fontStyle=1" parent="V0djV3tH_5kUoq27LHzC-54" connectable="0" vertex="1">
          <mxGeometry x="-1" relative="1" as="geometry" />
        </mxCell>
        <mxCell id="V0djV3tH_5kUoq27LHzC-57" value="0..1 season" style="edgeLabel;resizable=0;html=1;align=left;verticalAlign=top;fillStyle=auto;strokeColor=#8C8C8C;fillColor=#E3E3E3;fontStyle=0" parent="V0djV3tH_5kUoq27LHzC-54" connectable="0" vertex="1">
          <mxGeometry x="1" relative="1" as="geometry" />
        </mxCell>
        <mxCell id="V0djV3tH_5kUoq27LHzC-58" value="" style="endArrow=none;html=1;rounded=0;edgeStyle=orthogonalEdgeStyle;elbow=vertical;endFill=0;exitX=0.25;exitY=1;exitDx=0;exitDy=0;entryX=1;entryY=0.25;entryDx=0;entryDy=0;" parent="1" source="K2BsHjy6juh8Ua25t9S5-60" target="K2BsHjy6juh8Ua25t9S5-62" edge="1">
          <mxGeometry relative="1" as="geometry">
            <mxPoint x="1380" y="-300" as="sourcePoint" />
            <mxPoint x="1340" y="-360" as="targetPoint" />
          </mxGeometry>
        </mxCell>
        <mxCell id="V0djV3tH_5kUoq27LHzC-59" value="&lt;br&gt;" style="edgeLabel;resizable=0;html=1;align=center;verticalAlign=middle;fillStyle=auto;strokeColor=#8C8C8C;fillColor=#E3E3E3;" parent="V0djV3tH_5kUoq27LHzC-58" connectable="0" vertex="1">
          <mxGeometry relative="1" as="geometry" />
        </mxCell>
        <mxCell id="V0djV3tH_5kUoq27LHzC-60" value="1 spirit" style="edgeLabel;resizable=0;html=1;align=right;verticalAlign=top;fillStyle=auto;strokeColor=#8C8C8C;fillColor=#E3E3E3;fontStyle=1" parent="V0djV3tH_5kUoq27LHzC-58" connectable="0" vertex="1">
          <mxGeometry x="-1" relative="1" as="geometry" />
        </mxCell>
        <mxCell id="V0djV3tH_5kUoq27LHzC-61" value="0..* ts" style="edgeLabel;resizable=0;html=1;align=left;verticalAlign=bottom;fillStyle=auto;strokeColor=#8C8C8C;fillColor=#E3E3E3;fontStyle=0" parent="V0djV3tH_5kUoq27LHzC-58" connectable="0" vertex="1">
          <mxGeometry x="1" relative="1" as="geometry" />
        </mxCell>
        <mxCell id="V0djV3tH_5kUoq27LHzC-62" value="" style="endArrow=none;html=1;rounded=0;edgeStyle=orthogonalEdgeStyle;elbow=vertical;endFill=0;exitX=0;exitY=0.75;exitDx=0;exitDy=0;entryX=0.75;entryY=0;entryDx=0;entryDy=0;" parent="1" source="K2BsHjy6juh8Ua25t9S5-60" target="K2BsHjy6juh8Ua25t9S5-52" edge="1">
          <mxGeometry relative="1" as="geometry">
            <mxPoint x="880" y="-52.5" as="sourcePoint" />
            <mxPoint x="1170" y="22.5" as="targetPoint" />
          </mxGeometry>
        </mxCell>
        <mxCell id="V0djV3tH_5kUoq27LHzC-63" value="&lt;br&gt;" style="edgeLabel;resizable=0;html=1;align=center;verticalAlign=middle;fillStyle=auto;strokeColor=#8C8C8C;fillColor=#E3E3E3;" parent="V0djV3tH_5kUoq27LHzC-62" connectable="0" vertex="1">
          <mxGeometry relative="1" as="geometry" />
        </mxCell>
        <mxCell id="V0djV3tH_5kUoq27LHzC-64" value="1 spirit" style="edgeLabel;resizable=0;html=1;align=right;verticalAlign=bottom;fillStyle=auto;strokeColor=#8C8C8C;fillColor=#E3E3E3;fontStyle=1" parent="V0djV3tH_5kUoq27LHzC-62" connectable="0" vertex="1">
          <mxGeometry x="-1" relative="1" as="geometry" />
        </mxCell>
        <mxCell id="V0djV3tH_5kUoq27LHzC-65" value="0..* returns" style="edgeLabel;resizable=0;html=1;align=left;verticalAlign=bottom;fillStyle=auto;strokeColor=#8C8C8C;fillColor=#E3E3E3;fontStyle=0" parent="V0djV3tH_5kUoq27LHzC-62" connectable="0" vertex="1">
          <mxGeometry x="1" relative="1" as="geometry" />
        </mxCell>
        <mxCell id="V0djV3tH_5kUoq27LHzC-69" value="" style="endArrow=none;html=1;rounded=0;edgeStyle=orthogonalEdgeStyle;elbow=vertical;endFill=0;entryX=0.25;entryY=0;entryDx=0;entryDy=0;exitX=1;exitY=0.75;exitDx=0;exitDy=0;" parent="1" source="K2BsHjy6juh8Ua25t9S5-62" target="K2BsHjy6juh8Ua25t9S5-58" edge="1">
          <mxGeometry relative="1" as="geometry">
            <mxPoint x="800" y="-260" as="sourcePoint" />
            <mxPoint x="670" y="-280" as="targetPoint" />
          </mxGeometry>
        </mxCell>
        <mxCell id="V0djV3tH_5kUoq27LHzC-70" value="&lt;br&gt;" style="edgeLabel;resizable=0;html=1;align=center;verticalAlign=middle;fillStyle=auto;strokeColor=#8C8C8C;fillColor=#E3E3E3;" parent="V0djV3tH_5kUoq27LHzC-69" connectable="0" vertex="1">
          <mxGeometry relative="1" as="geometry" />
        </mxCell>
        <mxCell id="V0djV3tH_5kUoq27LHzC-71" value="0..1 ts" style="edgeLabel;resizable=0;html=1;align=left;verticalAlign=bottom;fillStyle=auto;strokeColor=#8C8C8C;fillColor=#E3E3E3;fontStyle=0" parent="V0djV3tH_5kUoq27LHzC-69" connectable="0" vertex="1">
          <mxGeometry x="-1" relative="1" as="geometry" />
        </mxCell>
        <mxCell id="V0djV3tH_5kUoq27LHzC-72" value="1 tree" style="edgeLabel;resizable=0;html=1;align=right;verticalAlign=bottom;fillStyle=auto;strokeColor=#8C8C8C;fillColor=#E3E3E3;fontStyle=1" parent="V0djV3tH_5kUoq27LHzC-69" connectable="0" vertex="1">
          <mxGeometry x="1" relative="1" as="geometry" />
        </mxCell>
        <mxCell id="V0djV3tH_5kUoq27LHzC-75" value="" style="endArrow=none;html=1;rounded=0;edgeStyle=orthogonalEdgeStyle;elbow=vertical;endFill=0;" parent="1" source="K2BsHjy6juh8Ua25t9S5-52" target="K2BsHjy6juh8Ua25t9S5-50" edge="1">
          <mxGeometry relative="1" as="geometry">
            <mxPoint x="1200" y="-80" as="sourcePoint" />
            <mxPoint x="1310" y="90" as="targetPoint" />
          </mxGeometry>
        </mxCell>
        <mxCell id="V0djV3tH_5kUoq27LHzC-76" value="&lt;br&gt;" style="edgeLabel;resizable=0;html=1;align=center;verticalAlign=middle;fillStyle=auto;strokeColor=#8C8C8C;fillColor=#E3E3E3;" parent="V0djV3tH_5kUoq27LHzC-75" connectable="0" vertex="1">
          <mxGeometry relative="1" as="geometry" />
        </mxCell>
        <mxCell id="V0djV3tH_5kUoq27LHzC-77" value="0..* spirits" style="edgeLabel;resizable=0;html=1;align=right;verticalAlign=bottom;fillStyle=auto;strokeColor=#8C8C8C;fillColor=#E3E3E3;fontStyle=1" parent="V0djV3tH_5kUoq27LHzC-75" connectable="0" vertex="1">
          <mxGeometry x="-1" relative="1" as="geometry" />
        </mxCell>
        <mxCell id="V0djV3tH_5kUoq27LHzC-78" value="1 return" style="edgeLabel;resizable=0;html=1;align=right;verticalAlign=top;fillStyle=auto;strokeColor=#8C8C8C;fillColor=#E3E3E3;fontStyle=0" parent="V0djV3tH_5kUoq27LHzC-75" connectable="0" vertex="1">
          <mxGeometry x="1" relative="1" as="geometry" />
        </mxCell>
        <mxCell id="V0djV3tH_5kUoq27LHzC-79" value="" style="endArrow=none;html=1;rounded=0;edgeStyle=orthogonalEdgeStyle;elbow=vertical;endFill=0;entryX=0;entryY=0.25;entryDx=0;entryDy=0;exitX=0.5;exitY=1;exitDx=0;exitDy=0;" parent="1" source="K2BsHjy6juh8Ua25t9S5-52" target="K2BsHjy6juh8Ua25t9S5-58" edge="1">
          <mxGeometry relative="1" as="geometry">
            <mxPoint x="450" y="-120" as="sourcePoint" />
            <mxPoint x="270" y="-190" as="targetPoint" />
          </mxGeometry>
        </mxCell>
        <mxCell id="V0djV3tH_5kUoq27LHzC-80" value="&lt;br&gt;" style="edgeLabel;resizable=0;html=1;align=center;verticalAlign=middle;fillStyle=auto;strokeColor=#8C8C8C;fillColor=#E3E3E3;" parent="V0djV3tH_5kUoq27LHzC-79" connectable="0" vertex="1">
          <mxGeometry relative="1" as="geometry" />
        </mxCell>
        <mxCell id="V0djV3tH_5kUoq27LHzC-81" value="0..1 visit" style="edgeLabel;resizable=0;html=1;align=right;verticalAlign=top;fillStyle=auto;strokeColor=#8C8C8C;fillColor=#E3E3E3;" parent="V0djV3tH_5kUoq27LHzC-79" connectable="0" vertex="1">
          <mxGeometry x="-1" relative="1" as="geometry" />
        </mxCell>
        <mxCell id="V0djV3tH_5kUoq27LHzC-82" value="1 tree" style="edgeLabel;resizable=0;html=1;align=right;verticalAlign=bottom;fillStyle=auto;strokeColor=#8C8C8C;fillColor=#E3E3E3;fontStyle=1" parent="V0djV3tH_5kUoq27LHzC-79" connectable="0" vertex="1">
          <mxGeometry x="1" relative="1" as="geometry" />
        </mxCell>
        <mxCell id="XCHDWSWX-eD-a5PfDnqa-1" value="" style="endArrow=none;html=1;rounded=0;edgeStyle=orthogonalEdgeStyle;elbow=vertical;endFill=0;exitX=0;exitY=0.85;exitDx=0;exitDy=0;entryX=1;entryY=0.25;entryDx=0;entryDy=0;" parent="1" source="K2BsHjy6juh8Ua25t9S5-54" target="K2BsHjy6juh8Ua25t9S5-1" edge="1">
          <mxGeometry relative="1" as="geometry">
            <mxPoint x="960" y="-462" as="sourcePoint" />
            <mxPoint x="705" y="-395" as="targetPoint" />
            <Array as="points">
              <mxPoint x="630" y="-646" />
              <mxPoint x="630" y="-577" />
            </Array>
          </mxGeometry>
        </mxCell>
        <mxCell id="XCHDWSWX-eD-a5PfDnqa-2" value="&lt;br&gt;" style="edgeLabel;resizable=0;html=1;align=center;verticalAlign=middle;fillStyle=auto;strokeColor=#8C8C8C;fillColor=#E3E3E3;" parent="XCHDWSWX-eD-a5PfDnqa-1" connectable="0" vertex="1">
          <mxGeometry relative="1" as="geometry" />
        </mxCell>
        <mxCell id="XCHDWSWX-eD-a5PfDnqa-3" value="0..1 season" style="edgeLabel;resizable=0;html=1;align=right;verticalAlign=bottom;fillStyle=auto;strokeColor=#8C8C8C;fillColor=#E3E3E3;fontStyle=1" parent="XCHDWSWX-eD-a5PfDnqa-1" connectable="0" vertex="1">
          <mxGeometry x="-1" relative="1" as="geometry" />
        </mxCell>
        <mxCell id="XCHDWSWX-eD-a5PfDnqa-4" value="" style="edgeLabel;resizable=0;html=1;align=left;verticalAlign=bottom;fillStyle=auto;strokeColor=#8C8C8C;fillColor=#E3E3E3;fontStyle=0" parent="XCHDWSWX-eD-a5PfDnqa-1" connectable="0" vertex="1">
          <mxGeometry x="1" relative="1" as="geometry" />
        </mxCell>
        <mxCell id="O0EAnTSRSGynooSeHsZq-1" value="" style="endArrow=none;html=1;rounded=0;edgeStyle=orthogonalEdgeStyle;elbow=vertical;endFill=0;exitX=0.75;exitY=0;exitDx=0;exitDy=0;entryX=0.75;entryY=1;entryDx=0;entryDy=0;" parent="1" source="K2BsHjy6juh8Ua25t9S5-38" target="K2BsHjy6juh8Ua25t9S5-1" edge="1">
          <mxGeometry relative="1" as="geometry">
            <mxPoint x="550" y="-260" as="sourcePoint" />
            <mxPoint x="550" y="-380" as="targetPoint" />
          </mxGeometry>
        </mxCell>
        <mxCell id="O0EAnTSRSGynooSeHsZq-2" value="&lt;br&gt;" style="edgeLabel;resizable=0;html=1;align=center;verticalAlign=middle;fillStyle=auto;strokeColor=#8C8C8C;fillColor=#E3E3E3;" parent="O0EAnTSRSGynooSeHsZq-1" connectable="0" vertex="1">
          <mxGeometry relative="1" as="geometry" />
        </mxCell>
        <mxCell id="O0EAnTSRSGynooSeHsZq-3" value="0..* hiddenNodes" style="edgeLabel;resizable=0;html=1;align=center;verticalAlign=bottom;fillStyle=auto;strokeColor=#8C8C8C;fillColor=#E3E3E3;" parent="O0EAnTSRSGynooSeHsZq-1" connectable="0" vertex="1">
          <mxGeometry x="-1" relative="1" as="geometry" />
        </mxCell>
        <mxCell id="O0EAnTSRSGynooSeHsZq-4" value="0..* hiddenItems" style="edgeLabel;resizable=0;html=1;align=center;verticalAlign=top;fillStyle=auto;strokeColor=#8C8C8C;fillColor=#E3E3E3;fontStyle=1" parent="O0EAnTSRSGynooSeHsZq-1" connectable="0" vertex="1">
          <mxGeometry x="1" relative="1" as="geometry">
            <mxPoint x="5" as="offset" />
          </mxGeometry>
        </mxCell>
        <mxCell id="Ee4Hg3JfBV5nUyTTSFG6-1" value="" style="endArrow=none;html=1;rounded=0;edgeStyle=orthogonalEdgeStyle;elbow=vertical;endFill=0;entryX=0;entryY=0.25;entryDx=0;entryDy=0;exitX=1;exitY=0.25;exitDx=0;exitDy=0;jumpStyle=arc;" parent="1" source="K2BsHjy6juh8Ua25t9S5-50" target="K2BsHjy6juh8Ua25t9S5-44" edge="1">
          <mxGeometry relative="1" as="geometry">
            <mxPoint x="1050" y="-275" as="sourcePoint" />
            <mxPoint x="1285" y="-430" as="targetPoint" />
            <Array as="points">
              <mxPoint x="930" y="-558" />
              <mxPoint x="930" y="-595" />
            </Array>
          </mxGeometry>
        </mxCell>
        <mxCell id="Ee4Hg3JfBV5nUyTTSFG6-2" value="&lt;br&gt;" style="edgeLabel;resizable=0;html=1;align=center;verticalAlign=middle;fillStyle=auto;strokeColor=#8C8C8C;fillColor=#E3E3E3;" parent="Ee4Hg3JfBV5nUyTTSFG6-1" connectable="0" vertex="1">
          <mxGeometry relative="1" as="geometry" />
        </mxCell>
        <mxCell id="Ee4Hg3JfBV5nUyTTSFG6-3" value="&lt;span style=&quot;font-weight: normal;&quot;&gt;0..* rs&lt;/span&gt;" style="edgeLabel;resizable=0;html=1;align=left;verticalAlign=top;fillStyle=auto;strokeColor=#8C8C8C;fillColor=#E3E3E3;fontStyle=1" parent="Ee4Hg3JfBV5nUyTTSFG6-1" connectable="0" vertex="1">
          <mxGeometry x="-1" relative="1" as="geometry" />
        </mxCell>
        <mxCell id="Ee4Hg3JfBV5nUyTTSFG6-4" value="0..1 area" style="edgeLabel;resizable=0;html=1;align=right;verticalAlign=top;fillStyle=auto;strokeColor=#8C8C8C;fillColor=#E3E3E3;fontStyle=1" parent="Ee4Hg3JfBV5nUyTTSFG6-1" connectable="0" vertex="1">
          <mxGeometry x="1" relative="1" as="geometry" />
        </mxCell>
        <mxCell id="sDuxh0MpjBPP9tmrGERw-19" value="Cost" style="shape=table;startSize=30;container=1;collapsible=0;childLayout=tableLayout;strokeColor=default;fontSize=12;fillColor=#E3E3E3;fontStyle=1" parent="1" vertex="1">
          <mxGeometry x="80" y="-280" width="170" height="180" as="geometry" />
        </mxCell>
        <mxCell id="sDuxh0MpjBPP9tmrGERw-20" value="" style="shape=tableRow;horizontal=0;startSize=0;swimlaneHead=0;swimlaneBody=0;strokeColor=inherit;top=0;left=0;bottom=0;right=0;collapsible=0;dropTarget=0;fillColor=none;points=[[0,0.5],[1,0.5]];portConstraint=eastwest;fontSize=16;" parent="sDuxh0MpjBPP9tmrGERw-19" vertex="1">
          <mxGeometry y="30" width="170" height="26" as="geometry" />
        </mxCell>
        <mxCell id="sDuxh0MpjBPP9tmrGERw-21" value="c" style="shape=partialRectangle;html=1;whiteSpace=wrap;connectable=0;strokeColor=inherit;overflow=hidden;fillColor=none;top=0;left=0;bottom=0;right=0;pointerEvents=1;fontSize=12;" parent="sDuxh0MpjBPP9tmrGERw-20" vertex="1">
          <mxGeometry width="43" height="26" as="geometry">
            <mxRectangle width="43" height="26" as="alternateBounds" />
          </mxGeometry>
        </mxCell>
        <mxCell id="sDuxh0MpjBPP9tmrGERw-22" value="Candle" style="shape=partialRectangle;html=1;whiteSpace=wrap;connectable=0;strokeColor=inherit;overflow=hidden;fillColor=none;top=0;left=0;bottom=0;right=0;pointerEvents=1;fontSize=12;" parent="sDuxh0MpjBPP9tmrGERw-20" vertex="1">
          <mxGeometry x="43" width="127" height="26" as="geometry">
            <mxRectangle width="127" height="26" as="alternateBounds" />
          </mxGeometry>
        </mxCell>
        <mxCell id="sDuxh0MpjBPP9tmrGERw-24" value="" style="shape=tableRow;horizontal=0;startSize=0;swimlaneHead=0;swimlaneBody=0;strokeColor=inherit;top=0;left=0;bottom=0;right=0;collapsible=0;dropTarget=0;fillColor=none;points=[[0,0.5],[1,0.5]];portConstraint=eastwest;fontSize=16;" parent="sDuxh0MpjBPP9tmrGERw-19" vertex="1">
          <mxGeometry y="56" width="170" height="26" as="geometry" />
        </mxCell>
        <mxCell id="sDuxh0MpjBPP9tmrGERw-25" value="h" style="shape=partialRectangle;html=1;whiteSpace=wrap;connectable=0;strokeColor=inherit;overflow=hidden;fillColor=none;top=0;left=0;bottom=0;right=0;pointerEvents=1;fontSize=12;" parent="sDuxh0MpjBPP9tmrGERw-24" vertex="1">
          <mxGeometry width="43" height="26" as="geometry">
            <mxRectangle width="43" height="26" as="alternateBounds" />
          </mxGeometry>
        </mxCell>
        <mxCell id="sDuxh0MpjBPP9tmrGERw-26" value="Heart" style="shape=partialRectangle;html=1;whiteSpace=wrap;connectable=0;strokeColor=inherit;overflow=hidden;fillColor=none;top=0;left=0;bottom=0;right=0;pointerEvents=1;fontSize=12;" parent="sDuxh0MpjBPP9tmrGERw-24" vertex="1">
          <mxGeometry x="43" width="127" height="26" as="geometry">
            <mxRectangle width="127" height="26" as="alternateBounds" />
          </mxGeometry>
        </mxCell>
        <mxCell id="sDuxh0MpjBPP9tmrGERw-28" value="" style="shape=tableRow;horizontal=0;startSize=0;swimlaneHead=0;swimlaneBody=0;strokeColor=inherit;top=0;left=0;bottom=0;right=0;collapsible=0;dropTarget=0;fillColor=none;points=[[0,0.5],[1,0.5]];portConstraint=eastwest;fontSize=16;" parent="sDuxh0MpjBPP9tmrGERw-19" vertex="1">
          <mxGeometry y="82" width="170" height="23" as="geometry" />
        </mxCell>
        <mxCell id="sDuxh0MpjBPP9tmrGERw-29" value="sc" style="shape=partialRectangle;html=1;whiteSpace=wrap;connectable=0;strokeColor=inherit;overflow=hidden;fillColor=none;top=0;left=0;bottom=0;right=0;pointerEvents=1;fontSize=12;" parent="sDuxh0MpjBPP9tmrGERw-28" vertex="1">
          <mxGeometry width="43" height="23" as="geometry">
            <mxRectangle width="43" height="23" as="alternateBounds" />
          </mxGeometry>
        </mxCell>
        <mxCell id="sDuxh0MpjBPP9tmrGERw-30" value="Season Candle" style="shape=partialRectangle;html=1;whiteSpace=wrap;connectable=0;strokeColor=inherit;overflow=hidden;fillColor=none;top=0;left=0;bottom=0;right=0;pointerEvents=1;fontSize=12;" parent="sDuxh0MpjBPP9tmrGERw-28" vertex="1">
          <mxGeometry x="43" width="127" height="23" as="geometry">
            <mxRectangle width="127" height="23" as="alternateBounds" />
          </mxGeometry>
        </mxCell>
        <mxCell id="sDuxh0MpjBPP9tmrGERw-56" style="shape=tableRow;horizontal=0;startSize=0;swimlaneHead=0;swimlaneBody=0;strokeColor=inherit;top=0;left=0;bottom=0;right=0;collapsible=0;dropTarget=0;fillColor=none;points=[[0,0.5],[1,0.5]];portConstraint=eastwest;fontSize=16;" parent="sDuxh0MpjBPP9tmrGERw-19" vertex="1">
          <mxGeometry y="105" width="170" height="23" as="geometry" />
        </mxCell>
        <mxCell id="sDuxh0MpjBPP9tmrGERw-57" value="sh" style="shape=partialRectangle;html=1;whiteSpace=wrap;connectable=0;strokeColor=inherit;overflow=hidden;fillColor=none;top=0;left=0;bottom=0;right=0;pointerEvents=1;fontSize=12;" parent="sDuxh0MpjBPP9tmrGERw-56" vertex="1">
          <mxGeometry width="43" height="23" as="geometry">
            <mxRectangle width="43" height="23" as="alternateBounds" />
          </mxGeometry>
        </mxCell>
        <mxCell id="sDuxh0MpjBPP9tmrGERw-58" value="Season Heart" style="shape=partialRectangle;html=1;whiteSpace=wrap;connectable=0;strokeColor=inherit;overflow=hidden;fillColor=none;top=0;left=0;bottom=0;right=0;pointerEvents=1;fontSize=12;" parent="sDuxh0MpjBPP9tmrGERw-56" vertex="1">
          <mxGeometry x="43" width="127" height="23" as="geometry">
            <mxRectangle width="127" height="23" as="alternateBounds" />
          </mxGeometry>
        </mxCell>
        <mxCell id="sDuxh0MpjBPP9tmrGERw-53" style="shape=tableRow;horizontal=0;startSize=0;swimlaneHead=0;swimlaneBody=0;strokeColor=inherit;top=0;left=0;bottom=0;right=0;collapsible=0;dropTarget=0;fillColor=none;points=[[0,0.5],[1,0.5]];portConstraint=eastwest;fontSize=16;" parent="sDuxh0MpjBPP9tmrGERw-19" vertex="1">
          <mxGeometry y="128" width="170" height="26" as="geometry" />
        </mxCell>
        <mxCell id="sDuxh0MpjBPP9tmrGERw-54" value="ac" style="shape=partialRectangle;html=1;whiteSpace=wrap;connectable=0;strokeColor=inherit;overflow=hidden;fillColor=none;top=0;left=0;bottom=0;right=0;pointerEvents=1;fontSize=12;" parent="sDuxh0MpjBPP9tmrGERw-53" vertex="1">
          <mxGeometry width="43" height="26" as="geometry">
            <mxRectangle width="43" height="26" as="alternateBounds" />
          </mxGeometry>
        </mxCell>
        <mxCell id="sDuxh0MpjBPP9tmrGERw-55" value="Ascended Candle" style="shape=partialRectangle;html=1;whiteSpace=wrap;connectable=0;strokeColor=inherit;overflow=hidden;fillColor=none;top=0;left=0;bottom=0;right=0;pointerEvents=1;fontSize=12;" parent="sDuxh0MpjBPP9tmrGERw-53" vertex="1">
          <mxGeometry x="43" width="127" height="26" as="geometry">
            <mxRectangle width="127" height="26" as="alternateBounds" />
          </mxGeometry>
        </mxCell>
        <mxCell id="sDuxh0MpjBPP9tmrGERw-50" style="shape=tableRow;horizontal=0;startSize=0;swimlaneHead=0;swimlaneBody=0;strokeColor=inherit;top=0;left=0;bottom=0;right=0;collapsible=0;dropTarget=0;fillColor=none;points=[[0,0.5],[1,0.5]];portConstraint=eastwest;fontSize=16;" parent="sDuxh0MpjBPP9tmrGERw-19" vertex="1">
          <mxGeometry y="154" width="170" height="26" as="geometry" />
        </mxCell>
        <mxCell id="sDuxh0MpjBPP9tmrGERw-51" value="ec" style="shape=partialRectangle;html=1;whiteSpace=wrap;connectable=0;strokeColor=inherit;overflow=hidden;fillColor=none;top=0;left=0;bottom=0;right=0;pointerEvents=1;fontSize=12;" parent="sDuxh0MpjBPP9tmrGERw-50" vertex="1">
          <mxGeometry width="43" height="26" as="geometry">
            <mxRectangle width="43" height="26" as="alternateBounds" />
          </mxGeometry>
        </mxCell>
        <mxCell id="sDuxh0MpjBPP9tmrGERw-52" value="Event Currency" style="shape=partialRectangle;html=1;whiteSpace=wrap;connectable=0;strokeColor=inherit;overflow=hidden;fillColor=none;top=0;left=0;bottom=0;right=0;pointerEvents=1;fontSize=12;" parent="sDuxh0MpjBPP9tmrGERw-50" vertex="1">
          <mxGeometry x="43" width="127" height="26" as="geometry">
            <mxRectangle width="127" height="26" as="alternateBounds" />
          </mxGeometry>
        </mxCell>
        <mxCell id="NMLMTX02bqpTLhXPdmmr-1" value="ItemSubtype" style="swimlane;fontStyle=1;childLayout=stackLayout;horizontal=1;startSize=30;horizontalStack=0;resizeParent=1;resizeParentMax=0;resizeLast=0;collapsible=1;marginBottom=0;whiteSpace=wrap;html=1;fillStyle=auto;strokeColor=#8C8C8C;fillColor=#E3E3E3;" parent="1" vertex="1">
          <mxGeometry x="230" y="-890" width="140" height="90" as="geometry" />
        </mxCell>
        <mxCell id="NMLMTX02bqpTLhXPdmmr-2" value="Instrument" style="text;strokeColor=none;fillColor=none;align=left;verticalAlign=middle;spacingLeft=4;spacingRight=4;overflow=hidden;points=[[0,0.5],[1,0.5]];portConstraint=eastwest;rotatable=0;whiteSpace=wrap;html=1;fillStyle=auto;" parent="NMLMTX02bqpTLhXPdmmr-1" vertex="1">
          <mxGeometry y="30" width="140" height="30" as="geometry" />
        </mxCell>
        <mxCell id="6GQ-R6aCfMWhEhMD8jzj-1" value="FriendEmote" style="text;strokeColor=none;fillColor=none;align=left;verticalAlign=middle;spacingLeft=4;spacingRight=4;overflow=hidden;points=[[0,0.5],[1,0.5]];portConstraint=eastwest;rotatable=0;whiteSpace=wrap;html=1;fillStyle=auto;" parent="NMLMTX02bqpTLhXPdmmr-1" vertex="1">
          <mxGeometry y="60" width="140" height="30" as="geometry" />
        </mxCell>
        <mxCell id="PBAJdNJp6wdwmji5P2WY-14" value="SpiritType" style="swimlane;fontStyle=1;childLayout=stackLayout;horizontal=1;startSize=30;horizontalStack=0;resizeParent=1;resizeParentMax=0;resizeLast=0;collapsible=1;marginBottom=0;whiteSpace=wrap;html=1;fillStyle=auto;strokeColor=#8C8C8C;fillColor=#E3E3E3;" parent="1" vertex="1">
          <mxGeometry x="230" y="-630" width="140" height="210" as="geometry" />
        </mxCell>
        <mxCell id="PBAJdNJp6wdwmji5P2WY-15" value="Regular" style="text;strokeColor=none;fillColor=none;align=left;verticalAlign=middle;spacingLeft=4;spacingRight=4;overflow=hidden;points=[[0,0.5],[1,0.5]];portConstraint=eastwest;rotatable=0;whiteSpace=wrap;html=1;fillStyle=auto;" parent="PBAJdNJp6wdwmji5P2WY-14" vertex="1">
          <mxGeometry y="30" width="140" height="30" as="geometry" />
        </mxCell>
        <mxCell id="PBAJdNJp6wdwmji5P2WY-16" value="Elder" style="text;strokeColor=none;fillColor=none;align=left;verticalAlign=middle;spacingLeft=4;spacingRight=4;overflow=hidden;points=[[0,0.5],[1,0.5]];portConstraint=eastwest;rotatable=0;whiteSpace=wrap;html=1;fillStyle=auto;" parent="PBAJdNJp6wdwmji5P2WY-14" vertex="1">
          <mxGeometry y="60" width="140" height="30" as="geometry" />
        </mxCell>
        <mxCell id="PBAJdNJp6wdwmji5P2WY-17" value="Guide" style="text;strokeColor=none;fillColor=none;align=left;verticalAlign=middle;spacingLeft=4;spacingRight=4;overflow=hidden;points=[[0,0.5],[1,0.5]];portConstraint=eastwest;rotatable=0;whiteSpace=wrap;html=1;fillStyle=auto;" parent="PBAJdNJp6wdwmji5P2WY-14" vertex="1">
          <mxGeometry y="90" width="140" height="30" as="geometry" />
        </mxCell>
        <mxCell id="PBAJdNJp6wdwmji5P2WY-21" value="Season" style="text;strokeColor=none;fillColor=none;align=left;verticalAlign=middle;spacingLeft=4;spacingRight=4;overflow=hidden;points=[[0,0.5],[1,0.5]];portConstraint=eastwest;rotatable=0;whiteSpace=wrap;html=1;fillStyle=auto;" parent="PBAJdNJp6wdwmji5P2WY-14" vertex="1">
          <mxGeometry y="120" width="140" height="30" as="geometry" />
        </mxCell>
        <mxCell id="PBAJdNJp6wdwmji5P2WY-24" value="Event" style="text;strokeColor=none;fillColor=none;align=left;verticalAlign=middle;spacingLeft=4;spacingRight=4;overflow=hidden;points=[[0,0.5],[1,0.5]];portConstraint=eastwest;rotatable=0;whiteSpace=wrap;html=1;fillStyle=auto;" parent="PBAJdNJp6wdwmji5P2WY-14" vertex="1">
          <mxGeometry y="150" width="140" height="30" as="geometry" />
        </mxCell>
        <mxCell id="PBAJdNJp6wdwmji5P2WY-30" value="Special" style="text;strokeColor=none;fillColor=none;align=left;verticalAlign=middle;spacingLeft=4;spacingRight=4;overflow=hidden;points=[[0,0.5],[1,0.5]];portConstraint=eastwest;rotatable=0;whiteSpace=wrap;html=1;fillStyle=auto;" parent="PBAJdNJp6wdwmji5P2WY-14" vertex="1">
          <mxGeometry y="180" width="140" height="30" as="geometry" />
        </mxCell>
        <mxCell id="KoGxkhm_v9NbhMUGpkAw-3" value="ShopType" style="swimlane;fontStyle=1;childLayout=stackLayout;horizontal=1;startSize=30;horizontalStack=0;resizeParent=1;resizeParentMax=0;resizeLast=0;collapsible=1;marginBottom=0;whiteSpace=wrap;html=1;fillStyle=auto;strokeColor=#8C8C8C;fillColor=#E3E3E3;" parent="1" vertex="1">
          <mxGeometry x="230" y="-410" width="140" height="120" as="geometry" />
        </mxCell>
        <mxCell id="KoGxkhm_v9NbhMUGpkAw-4" value="Store" style="text;strokeColor=none;fillColor=none;align=left;verticalAlign=middle;spacingLeft=4;spacingRight=4;overflow=hidden;points=[[0,0.5],[1,0.5]];portConstraint=eastwest;rotatable=0;whiteSpace=wrap;html=1;fillStyle=auto;" parent="KoGxkhm_v9NbhMUGpkAw-3" vertex="1">
          <mxGeometry y="30" width="140" height="30" as="geometry" />
        </mxCell>
        <mxCell id="KoGxkhm_v9NbhMUGpkAw-5" value="Spirit" style="text;strokeColor=none;fillColor=none;align=left;verticalAlign=middle;spacingLeft=4;spacingRight=4;overflow=hidden;points=[[0,0.5],[1,0.5]];portConstraint=eastwest;rotatable=0;whiteSpace=wrap;html=1;fillStyle=auto;" parent="KoGxkhm_v9NbhMUGpkAw-3" vertex="1">
          <mxGeometry y="60" width="140" height="30" as="geometry" />
        </mxCell>
        <mxCell id="KoGxkhm_v9NbhMUGpkAw-6" value="Object" style="text;strokeColor=none;fillColor=none;align=left;verticalAlign=middle;spacingLeft=4;spacingRight=4;overflow=hidden;points=[[0,0.5],[1,0.5]];portConstraint=eastwest;rotatable=0;whiteSpace=wrap;html=1;fillStyle=auto;" parent="KoGxkhm_v9NbhMUGpkAw-3" vertex="1">
          <mxGeometry y="90" width="140" height="30" as="geometry" />
        </mxCell>
        <mxCell id="eon2j85VCPs_XM2kXWBB-1" value="" style="endArrow=classic;html=1;rounded=0;edgeStyle=orthogonalEdgeStyle;elbow=vertical;endFill=1;entryX=0.75;entryY=0;entryDx=0;entryDy=0;exitX=0;exitY=0.75;exitDx=0;exitDy=0;" parent="1" source="K2BsHjy6juh8Ua25t9S5-46" target="K2BsHjy6juh8Ua25t9S5-60" edge="1">
          <mxGeometry relative="1" as="geometry">
            <mxPoint x="1140" y="-690" as="sourcePoint" />
            <mxPoint x="1140" y="-610" as="targetPoint" />
          </mxGeometry>
        </mxCell>
        <mxCell id="eon2j85VCPs_XM2kXWBB-2" value="&lt;br&gt;" style="edgeLabel;resizable=0;html=1;align=center;verticalAlign=middle;fillStyle=auto;strokeColor=#8C8C8C;fillColor=#E3E3E3;" parent="eon2j85VCPs_XM2kXWBB-1" connectable="0" vertex="1">
          <mxGeometry relative="1" as="geometry" />
        </mxCell>
        <mxCell id="eon2j85VCPs_XM2kXWBB-3" value="" style="edgeLabel;resizable=0;html=1;align=right;verticalAlign=top;fillStyle=auto;strokeColor=#8C8C8C;fillColor=#E3E3E3;" parent="eon2j85VCPs_XM2kXWBB-1" connectable="0" vertex="1">
          <mxGeometry x="-1" relative="1" as="geometry" />
        </mxCell>
        <mxCell id="eon2j85VCPs_XM2kXWBB-4" value="0..1 elder" style="edgeLabel;resizable=0;html=1;align=left;verticalAlign=bottom;fillStyle=auto;strokeColor=#8C8C8C;fillColor=#E3E3E3;fontStyle=1" parent="eon2j85VCPs_XM2kXWBB-1" connectable="0" vertex="1">
          <mxGeometry x="1" relative="1" as="geometry" />
        </mxCell>
        <mxCell id="eon2j85VCPs_XM2kXWBB-6" value="RealmConstellation" style="swimlane;fontStyle=1;childLayout=stackLayout;horizontal=1;startSize=30;horizontalStack=0;resizeParent=1;resizeParentMax=0;resizeLast=0;collapsible=1;marginBottom=0;whiteSpace=wrap;html=1;fillStyle=auto;strokeColor=#8C8C8C;fillColor=#CCFFCC;" parent="1" vertex="1">
          <mxGeometry x="1390" y="-460" width="140" height="60" as="geometry" />
        </mxCell>
        <mxCell id="eon2j85VCPs_XM2kXWBB-9" value="imageUrl: string" style="text;strokeColor=none;fillColor=none;align=left;verticalAlign=middle;spacingLeft=4;spacingRight=4;overflow=hidden;points=[[0,0.5],[1,0.5]];portConstraint=eastwest;rotatable=0;whiteSpace=wrap;html=1;fillStyle=auto;" parent="eon2j85VCPs_XM2kXWBB-6" vertex="1">
          <mxGeometry y="30" width="140" height="30" as="geometry" />
        </mxCell>
        <mxCell id="eon2j85VCPs_XM2kXWBB-11" value="RealmConstellationIcon" style="swimlane;fontStyle=1;childLayout=stackLayout;horizontal=1;startSize=30;horizontalStack=0;resizeParent=1;resizeParentMax=0;resizeLast=0;collapsible=1;marginBottom=0;whiteSpace=wrap;html=1;fillStyle=auto;strokeColor=#8C8C8C;fillColor=#CCFFCC;" parent="1" vertex="1">
          <mxGeometry x="1180" y="-430" width="140" height="120" as="geometry" />
        </mxCell>
        <mxCell id="eon2j85VCPs_XM2kXWBB-12" value="imageUrl: string" style="text;strokeColor=none;fillColor=none;align=left;verticalAlign=middle;spacingLeft=4;spacingRight=4;overflow=hidden;points=[[0,0.5],[1,0.5]];portConstraint=eastwest;rotatable=0;whiteSpace=wrap;html=1;fillStyle=auto;" parent="eon2j85VCPs_XM2kXWBB-11" vertex="1">
          <mxGeometry y="30" width="140" height="30" as="geometry" />
        </mxCell>
        <mxCell id="eon2j85VCPs_XM2kXWBB-15" value="position: number[]" style="text;strokeColor=none;fillColor=none;align=left;verticalAlign=middle;spacingLeft=4;spacingRight=4;overflow=hidden;points=[[0,0.5],[1,0.5]];portConstraint=eastwest;rotatable=0;whiteSpace=wrap;html=1;fillStyle=auto;" parent="eon2j85VCPs_XM2kXWBB-11" vertex="1">
          <mxGeometry y="60" width="140" height="30" as="geometry" />
        </mxCell>
        <mxCell id="eon2j85VCPs_XM2kXWBB-16" value="flag: boolean" style="text;strokeColor=none;fillColor=none;align=left;verticalAlign=middle;spacingLeft=4;spacingRight=4;overflow=hidden;points=[[0,0.5],[1,0.5]];portConstraint=eastwest;rotatable=0;whiteSpace=wrap;html=1;fillStyle=auto;" parent="eon2j85VCPs_XM2kXWBB-11" vertex="1">
          <mxGeometry y="90" width="140" height="30" as="geometry" />
        </mxCell>
        <mxCell id="eon2j85VCPs_XM2kXWBB-17" value="" style="endArrow=none;html=1;rounded=0;edgeStyle=orthogonalEdgeStyle;elbow=vertical;endFill=0;entryX=1;entryY=0.75;entryDx=0;entryDy=0;exitX=0.75;exitY=0;exitDx=0;exitDy=0;jumpStyle=arc;startArrow=classic;startFill=1;" parent="1" source="eon2j85VCPs_XM2kXWBB-6" target="K2BsHjy6juh8Ua25t9S5-46" edge="1">
          <mxGeometry relative="1" as="geometry">
            <mxPoint x="1370" y="-570" as="sourcePoint" />
            <mxPoint x="1535" y="-680" as="targetPoint" />
            <Array as="points">
              <mxPoint x="1495" y="-737" />
            </Array>
          </mxGeometry>
        </mxCell>
        <mxCell id="eon2j85VCPs_XM2kXWBB-18" value="&lt;br&gt;" style="edgeLabel;resizable=0;html=1;align=center;verticalAlign=middle;fillStyle=auto;strokeColor=#8C8C8C;fillColor=#E3E3E3;" parent="eon2j85VCPs_XM2kXWBB-17" connectable="0" vertex="1">
          <mxGeometry relative="1" as="geometry" />
        </mxCell>
        <mxCell id="eon2j85VCPs_XM2kXWBB-19" value="0..1 constellation" style="edgeLabel;resizable=0;html=1;align=right;verticalAlign=bottom;fillStyle=auto;strokeColor=#8C8C8C;fillColor=#E3E3E3;fontStyle=1" parent="eon2j85VCPs_XM2kXWBB-17" connectable="0" vertex="1">
          <mxGeometry x="-1" relative="1" as="geometry" />
        </mxCell>
        <mxCell id="eon2j85VCPs_XM2kXWBB-20" value="" style="edgeLabel;resizable=0;html=1;align=right;verticalAlign=top;fillStyle=auto;strokeColor=#8C8C8C;fillColor=#E3E3E3;fontStyle=0" parent="eon2j85VCPs_XM2kXWBB-17" connectable="0" vertex="1">
          <mxGeometry x="1" relative="1" as="geometry" />
        </mxCell>
        <mxCell id="eon2j85VCPs_XM2kXWBB-21" value="" style="endArrow=none;html=1;rounded=0;edgeStyle=orthogonalEdgeStyle;elbow=vertical;endFill=0;exitX=1;exitY=0.5;exitDx=0;exitDy=0;jumpStyle=arc;startArrow=classic;startFill=1;entryX=0.5;entryY=1;entryDx=0;entryDy=0;" parent="1" source="eon2j85VCPs_XM2kXWBB-11" target="eon2j85VCPs_XM2kXWBB-6" edge="1">
          <mxGeometry relative="1" as="geometry">
            <mxPoint x="1440" y="-440" as="sourcePoint" />
            <mxPoint x="1460" y="-320" as="targetPoint" />
          </mxGeometry>
        </mxCell>
        <mxCell id="eon2j85VCPs_XM2kXWBB-22" value="&lt;br&gt;" style="edgeLabel;resizable=0;html=1;align=center;verticalAlign=middle;fillStyle=auto;strokeColor=#8C8C8C;fillColor=#E3E3E3;" parent="eon2j85VCPs_XM2kXWBB-21" connectable="0" vertex="1">
          <mxGeometry relative="1" as="geometry" />
        </mxCell>
        <mxCell id="eon2j85VCPs_XM2kXWBB-23" value="0..* icons" style="edgeLabel;resizable=0;html=1;align=left;verticalAlign=bottom;fillStyle=auto;strokeColor=#8C8C8C;fillColor=#E3E3E3;fontStyle=1" parent="eon2j85VCPs_XM2kXWBB-21" connectable="0" vertex="1">
          <mxGeometry x="-1" relative="1" as="geometry" />
        </mxCell>
        <mxCell id="eon2j85VCPs_XM2kXWBB-24" value="" style="edgeLabel;resizable=0;html=1;align=right;verticalAlign=top;fillStyle=auto;strokeColor=#8C8C8C;fillColor=#E3E3E3;fontStyle=0" parent="eon2j85VCPs_XM2kXWBB-21" connectable="0" vertex="1">
          <mxGeometry x="1" relative="1" as="geometry" />
        </mxCell>
        <mxCell id="eon2j85VCPs_XM2kXWBB-25" value="" style="endArrow=none;html=1;rounded=0;edgeStyle=orthogonalEdgeStyle;elbow=vertical;endFill=0;exitX=1;exitY=0.75;exitDx=0;exitDy=0;jumpStyle=arc;startArrow=classic;startFill=1;entryX=0.5;entryY=0;entryDx=0;entryDy=0;" parent="1" source="K2BsHjy6juh8Ua25t9S5-60" target="eon2j85VCPs_XM2kXWBB-11" edge="1">
          <mxGeometry relative="1" as="geometry">
            <mxPoint x="1060" y="-310" as="sourcePoint" />
            <mxPoint x="1170" y="-345" as="targetPoint" />
          </mxGeometry>
        </mxCell>
        <mxCell id="eon2j85VCPs_XM2kXWBB-26" value="&lt;br&gt;" style="edgeLabel;resizable=0;html=1;align=center;verticalAlign=middle;fillStyle=auto;strokeColor=#8C8C8C;fillColor=#E3E3E3;" parent="eon2j85VCPs_XM2kXWBB-25" connectable="0" vertex="1">
          <mxGeometry relative="1" as="geometry" />
        </mxCell>
        <mxCell id="eon2j85VCPs_XM2kXWBB-27" value="1 spirit" style="edgeLabel;resizable=0;html=1;align=left;verticalAlign=bottom;fillStyle=auto;strokeColor=#8C8C8C;fillColor=#E3E3E3;fontStyle=1" parent="eon2j85VCPs_XM2kXWBB-25" connectable="0" vertex="1">
          <mxGeometry x="-1" relative="1" as="geometry" />
        </mxCell>
        <mxCell id="eon2j85VCPs_XM2kXWBB-28" value="" style="edgeLabel;resizable=0;html=1;align=right;verticalAlign=top;fillStyle=auto;strokeColor=#8C8C8C;fillColor=#E3E3E3;fontStyle=0" parent="eon2j85VCPs_XM2kXWBB-25" connectable="0" vertex="1">
          <mxGeometry x="1" relative="1" as="geometry" />
        </mxCell>
        <mxCell id="wUFlMEaF41gKracqZQiR-1" value="ItemListNode" style="swimlane;fontStyle=1;childLayout=stackLayout;horizontal=1;startSize=30;horizontalStack=0;resizeParent=1;resizeParentMax=0;resizeLast=0;collapsible=1;marginBottom=0;whiteSpace=wrap;html=1;fillStyle=auto;strokeColor=#8C8C8C;fillColor=#CCFFFF;" parent="1" vertex="1">
          <mxGeometry x="580" y="-1025" width="140" height="110" as="geometry" />
        </mxCell>
        <mxCell id="wUFlMEaF41gKracqZQiR-14" value="Cost" style="text;strokeColor=none;fillColor=none;align=left;verticalAlign=middle;spacingLeft=4;spacingRight=4;overflow=hidden;points=[[0,0.5],[1,0.5]];portConstraint=eastwest;rotatable=0;whiteSpace=wrap;html=1;fillStyle=auto;fontStyle=1" parent="wUFlMEaF41gKracqZQiR-1" vertex="1">
          <mxGeometry y="30" width="140" height="30" as="geometry" />
        </mxCell>
        <mxCell id="wUFlMEaF41gKracqZQiR-12" value="Progress" style="text;strokeColor=default;fillColor=#F2F2F2;align=left;verticalAlign=middle;spacingLeft=4;spacingRight=4;overflow=hidden;points=[[0,0.5],[1,0.5]];portConstraint=eastwest;rotatable=0;whiteSpace=wrap;html=1;" parent="wUFlMEaF41gKracqZQiR-1" vertex="1">
          <mxGeometry y="60" width="140" height="20" as="geometry" />
        </mxCell>
        <mxCell id="wUFlMEaF41gKracqZQiR-13" value="unlocked: boolean" style="text;strokeColor=none;fillColor=none;align=left;verticalAlign=middle;spacingLeft=4;spacingRight=4;overflow=hidden;points=[[0,0.5],[1,0.5]];portConstraint=eastwest;rotatable=0;whiteSpace=wrap;html=1;" parent="wUFlMEaF41gKracqZQiR-1" vertex="1">
          <mxGeometry y="80" width="140" height="30" as="geometry" />
        </mxCell>
        <mxCell id="wUFlMEaF41gKracqZQiR-2" value="ItemList" style="swimlane;fontStyle=1;childLayout=stackLayout;horizontal=1;startSize=30;horizontalStack=0;resizeParent=1;resizeParentMax=0;resizeLast=0;collapsible=1;marginBottom=0;whiteSpace=wrap;html=1;fillStyle=auto;strokeColor=#8C8C8C;fillColor=#CCFFFF;" parent="1" vertex="1">
          <mxGeometry x="820" y="-1000" width="140" height="60" as="geometry" />
        </mxCell>
        <mxCell id="wUFlMEaF41gKracqZQiR-4" value="" style="endArrow=none;html=1;rounded=0;edgeStyle=orthogonalEdgeStyle;elbow=vertical;endFill=0;" parent="1" source="wUFlMEaF41gKracqZQiR-2" target="wUFlMEaF41gKracqZQiR-1" edge="1">
          <mxGeometry relative="1" as="geometry">
            <mxPoint x="1020" y="-205" as="sourcePoint" />
            <mxPoint x="630" y="-205" as="targetPoint" />
          </mxGeometry>
        </mxCell>
        <mxCell id="wUFlMEaF41gKracqZQiR-5" value="&lt;br&gt;" style="edgeLabel;resizable=0;html=1;align=center;verticalAlign=middle;fillStyle=auto;strokeColor=#8C8C8C;fillColor=#E3E3E3;" parent="wUFlMEaF41gKracqZQiR-4" connectable="0" vertex="1">
          <mxGeometry relative="1" as="geometry" />
        </mxCell>
        <mxCell id="wUFlMEaF41gKracqZQiR-6" value="1 itemList" style="edgeLabel;resizable=0;html=1;align=right;verticalAlign=top;fillStyle=auto;strokeColor=#8C8C8C;fillColor=#E3E3E3;" parent="wUFlMEaF41gKracqZQiR-4" connectable="0" vertex="1">
          <mxGeometry x="-1" relative="1" as="geometry" />
        </mxCell>
        <mxCell id="wUFlMEaF41gKracqZQiR-7" value="0..* items" style="edgeLabel;resizable=0;html=1;align=left;verticalAlign=bottom;fillStyle=auto;strokeColor=#8C8C8C;fillColor=#E3E3E3;fontStyle=1" parent="wUFlMEaF41gKracqZQiR-4" connectable="0" vertex="1">
          <mxGeometry x="1" relative="1" as="geometry" />
        </mxCell>
        <mxCell id="wUFlMEaF41gKracqZQiR-8" value="" style="endArrow=none;html=1;rounded=0;edgeStyle=orthogonalEdgeStyle;elbow=vertical;endFill=0;exitX=0.25;exitY=1;exitDx=0;exitDy=0;entryX=1;entryY=0.15;entryDx=0;entryDy=0;jumpStyle=arc;" parent="1" source="wUFlMEaF41gKracqZQiR-1" target="K2BsHjy6juh8Ua25t9S5-1" edge="1">
          <mxGeometry relative="1" as="geometry">
            <mxPoint x="785" y="-950.5" as="sourcePoint" />
            <mxPoint x="655" y="-950.5" as="targetPoint" />
          </mxGeometry>
        </mxCell>
        <mxCell id="wUFlMEaF41gKracqZQiR-9" value="&lt;br&gt;" style="edgeLabel;resizable=0;html=1;align=center;verticalAlign=middle;fillStyle=auto;strokeColor=#8C8C8C;fillColor=#E3E3E3;" parent="wUFlMEaF41gKracqZQiR-8" connectable="0" vertex="1">
          <mxGeometry relative="1" as="geometry" />
        </mxCell>
        <mxCell id="wUFlMEaF41gKracqZQiR-10" value="0..* listNodes" style="edgeLabel;resizable=0;html=1;align=left;verticalAlign=top;fillStyle=auto;strokeColor=#8C8C8C;fillColor=#E3E3E3;" parent="wUFlMEaF41gKracqZQiR-8" connectable="0" vertex="1">
          <mxGeometry x="-1" relative="1" as="geometry" />
        </mxCell>
        <mxCell id="wUFlMEaF41gKracqZQiR-11" value="1 item" style="edgeLabel;resizable=0;html=1;align=left;verticalAlign=bottom;fillStyle=auto;strokeColor=#8C8C8C;fillColor=#E3E3E3;fontStyle=1" parent="wUFlMEaF41gKracqZQiR-8" connectable="0" vertex="1">
          <mxGeometry x="1" relative="1" as="geometry" />
        </mxCell>
        <mxCell id="wUFlMEaF41gKracqZQiR-15" value="" style="endArrow=none;html=1;rounded=0;edgeStyle=orthogonalEdgeStyle;elbow=vertical;endFill=0;entryX=0.5;entryY=1;entryDx=0;entryDy=0;exitX=0;exitY=0.25;exitDx=0;exitDy=0;" parent="1" source="K2BsHjy6juh8Ua25t9S5-56" target="wUFlMEaF41gKracqZQiR-2" edge="1">
          <mxGeometry relative="1" as="geometry">
            <mxPoint x="890" y="-900" as="sourcePoint" />
            <mxPoint x="800" y="-900" as="targetPoint" />
          </mxGeometry>
        </mxCell>
        <mxCell id="wUFlMEaF41gKracqZQiR-16" value="&lt;br&gt;" style="edgeLabel;resizable=0;html=1;align=center;verticalAlign=middle;fillStyle=auto;strokeColor=#8C8C8C;fillColor=#E3E3E3;" parent="wUFlMEaF41gKracqZQiR-15" connectable="0" vertex="1">
          <mxGeometry relative="1" as="geometry" />
        </mxCell>
        <mxCell id="wUFlMEaF41gKracqZQiR-17" value="1 shop" style="edgeLabel;resizable=0;html=1;align=right;verticalAlign=bottom;fillStyle=auto;strokeColor=#8C8C8C;fillColor=#E3E3E3;" parent="wUFlMEaF41gKracqZQiR-15" connectable="0" vertex="1">
          <mxGeometry x="-1" relative="1" as="geometry" />
        </mxCell>
        <mxCell id="wUFlMEaF41gKracqZQiR-18" value="0..1 itemList" style="edgeLabel;resizable=0;html=1;align=left;verticalAlign=top;fillStyle=auto;strokeColor=#8C8C8C;fillColor=#E3E3E3;fontStyle=1" parent="wUFlMEaF41gKracqZQiR-15" connectable="0" vertex="1">
          <mxGeometry x="1" relative="1" as="geometry" />
        </mxCell>
        <mxCell id="Yf9pw0FlTcyG8zPVAtiR-1" value="" style="endArrow=none;html=1;rounded=0;edgeStyle=orthogonalEdgeStyle;elbow=vertical;endFill=0;entryX=0.6;entryY=1;entryDx=0;entryDy=0;jumpStyle=arc;startArrow=classic;startFill=1;exitX=0.8;exitY=1;exitDx=0;exitDy=0;" parent="1" source="K2BsHjy6juh8Ua25t9S5-44" target="K2BsHjy6juh8Ua25t9S5-44" edge="1">
          <mxGeometry relative="1" as="geometry">
            <mxPoint x="1370" y="-640" as="sourcePoint" />
            <mxPoint x="1330" y="-687" as="targetPoint" />
            <Array as="points">
              <mxPoint x="1292" y="-530" />
              <mxPoint x="1264" y="-530" />
            </Array>
          </mxGeometry>
        </mxCell>
        <mxCell id="Yf9pw0FlTcyG8zPVAtiR-2" value="&lt;br&gt;" style="edgeLabel;resizable=0;html=1;align=center;verticalAlign=middle;fillStyle=auto;strokeColor=#8C8C8C;fillColor=#E3E3E3;" parent="Yf9pw0FlTcyG8zPVAtiR-1" connectable="0" vertex="1">
          <mxGeometry relative="1" as="geometry" />
        </mxCell>
        <mxCell id="Yf9pw0FlTcyG8zPVAtiR-3" value="0..* connections" style="edgeLabel;resizable=0;html=1;align=left;verticalAlign=top;fillStyle=auto;strokeColor=#8C8C8C;fillColor=#E3E3E3;fontStyle=1" parent="Yf9pw0FlTcyG8zPVAtiR-1" connectable="0" vertex="1">
          <mxGeometry x="-1" relative="1" as="geometry" />
        </mxCell>
        <mxCell id="Yf9pw0FlTcyG8zPVAtiR-4" value="" style="edgeLabel;resizable=0;html=1;align=right;verticalAlign=top;fillStyle=auto;strokeColor=#8C8C8C;fillColor=#E3E3E3;fontStyle=0" parent="Yf9pw0FlTcyG8zPVAtiR-1" connectable="0" vertex="1">
          <mxGeometry x="1" relative="1" as="geometry" />
        </mxCell>
        <mxCell id="-TrxyfpX-v3ZpeLMDqk6-1" value="MapShrine" style="swimlane;fontStyle=1;childLayout=stackLayout;horizontal=1;startSize=30;horizontalStack=0;resizeParent=1;resizeParentMax=0;resizeLast=0;collapsible=1;marginBottom=0;whiteSpace=wrap;html=1;fillStyle=auto;strokeColor=#8C8C8C;fillColor=#CCFFCC;" parent="1" vertex="1">
          <mxGeometry x="1330" y="-710" width="140" height="90" as="geometry" />
        </mxCell>
        <mxCell id="-TrxyfpX-v3ZpeLMDqk6-3" value="imageUrl: string" style="text;strokeColor=none;fillColor=none;align=left;verticalAlign=middle;spacingLeft=4;spacingRight=4;overflow=hidden;points=[[0,0.5],[1,0.5]];portConstraint=eastwest;rotatable=0;whiteSpace=wrap;html=1;fillStyle=auto;" parent="-TrxyfpX-v3ZpeLMDqk6-1" vertex="1">
          <mxGeometry y="30" width="140" height="30" as="geometry" />
        </mxCell>
        <mxCell id="-TrxyfpX-v3ZpeLMDqk6-2" value="description: string" style="text;strokeColor=none;fillColor=none;align=left;verticalAlign=middle;spacingLeft=4;spacingRight=4;overflow=hidden;points=[[0,0.5],[1,0.5]];portConstraint=eastwest;rotatable=0;whiteSpace=wrap;html=1;fillStyle=auto;" parent="-TrxyfpX-v3ZpeLMDqk6-1" vertex="1">
          <mxGeometry y="60" width="140" height="30" as="geometry" />
        </mxCell>
        <mxCell id="-TrxyfpX-v3ZpeLMDqk6-8" value="" style="endArrow=none;html=1;rounded=0;edgeStyle=orthogonalEdgeStyle;elbow=vertical;endFill=0;exitX=1;exitY=0.5;exitDx=0;exitDy=0;entryX=0.5;entryY=1;entryDx=0;entryDy=0;" parent="1" source="K2BsHjy6juh8Ua25t9S5-44" target="-TrxyfpX-v3ZpeLMDqk6-1" edge="1">
          <mxGeometry relative="1" as="geometry">
            <mxPoint x="1414.8" y="-610" as="sourcePoint" />
            <mxPoint x="1414.8" y="-520" as="targetPoint" />
          </mxGeometry>
        </mxCell>
        <mxCell id="-TrxyfpX-v3ZpeLMDqk6-9" value="&lt;br&gt;" style="edgeLabel;resizable=0;html=1;align=center;verticalAlign=middle;fillStyle=auto;strokeColor=#8C8C8C;fillColor=#E3E3E3;" parent="-TrxyfpX-v3ZpeLMDqk6-8" connectable="0" vertex="1">
          <mxGeometry relative="1" as="geometry" />
        </mxCell>
        <mxCell id="-TrxyfpX-v3ZpeLMDqk6-10" value="1 area" style="edgeLabel;resizable=0;html=1;align=left;verticalAlign=top;fillStyle=auto;strokeColor=#8C8C8C;fillColor=#E3E3E3;" parent="-TrxyfpX-v3ZpeLMDqk6-8" connectable="0" vertex="1">
          <mxGeometry x="-1" relative="1" as="geometry" />
        </mxCell>
        <mxCell id="-TrxyfpX-v3ZpeLMDqk6-11" value="0..* mapShrines" style="edgeLabel;resizable=0;html=1;align=left;verticalAlign=top;fillStyle=auto;strokeColor=#8C8C8C;fillColor=#E3E3E3;fontStyle=1" parent="-TrxyfpX-v3ZpeLMDqk6-8" connectable="0" vertex="1">
          <mxGeometry x="1" relative="1" as="geometry" />
        </mxCell>
        <mxCell id="Gt4cbnQS-56TKg6E3-HL-3" value="" style="endArrow=none;html=1;rounded=0;edgeStyle=orthogonalEdgeStyle;elbow=vertical;endFill=0;entryX=0.75;entryY=1;entryDx=0;entryDy=0;exitX=0.75;exitY=0;exitDx=0;exitDy=0;" parent="1" source="K2BsHjy6juh8Ua25t9S5-58" target="K2BsHjy6juh8Ua25t9S5-60" edge="1">
          <mxGeometry relative="1" as="geometry">
            <mxPoint x="1120" y="-200" as="sourcePoint" />
            <mxPoint x="1120" y="-405" as="targetPoint" />
          </mxGeometry>
        </mxCell>
        <mxCell id="Gt4cbnQS-56TKg6E3-HL-4" value="&lt;br&gt;" style="edgeLabel;resizable=0;html=1;align=center;verticalAlign=middle;fillStyle=auto;strokeColor=#8C8C8C;fillColor=#E3E3E3;" parent="Gt4cbnQS-56TKg6E3-HL-3" connectable="0" vertex="1">
          <mxGeometry relative="1" as="geometry" />
        </mxCell>
        <mxCell id="Gt4cbnQS-56TKg6E3-HL-5" value="0..* treeRevisions" style="edgeLabel;resizable=0;html=1;align=left;verticalAlign=bottom;fillStyle=auto;strokeColor=#8C8C8C;fillColor=#E3E3E3;fontStyle=1" parent="Gt4cbnQS-56TKg6E3-HL-3" connectable="0" vertex="1">
          <mxGeometry x="-1" relative="1" as="geometry" />
        </mxCell>
        <mxCell id="Gt4cbnQS-56TKg6E3-HL-6" value="0..1 spirit" style="edgeLabel;resizable=0;html=1;align=left;verticalAlign=top;fillStyle=auto;strokeColor=#8C8C8C;fillColor=#E3E3E3;fontStyle=0" parent="Gt4cbnQS-56TKg6E3-HL-3" connectable="0" vertex="1">
          <mxGeometry x="1" relative="1" as="geometry" />
        </mxCell>
        <mxCell id="CpMBo5jT-6ZhsACoMXyv-2" value="ItemGroup" style="swimlane;fontStyle=1;childLayout=stackLayout;horizontal=1;startSize=30;horizontalStack=0;resizeParent=1;resizeParentMax=0;resizeLast=0;collapsible=1;marginBottom=0;whiteSpace=wrap;html=1;fillStyle=auto;strokeColor=#8C8C8C;fillColor=#E3E3E3;" parent="1" vertex="1">
          <mxGeometry x="230" y="-790" width="140" height="150" as="geometry" />
        </mxCell>
        <mxCell id="CpMBo5jT-6ZhsACoMXyv-3" value="Elder" style="text;strokeColor=none;fillColor=none;align=left;verticalAlign=middle;spacingLeft=4;spacingRight=4;overflow=hidden;points=[[0,0.5],[1,0.5]];portConstraint=eastwest;rotatable=0;whiteSpace=wrap;html=1;fillStyle=auto;" parent="CpMBo5jT-6ZhsACoMXyv-2" vertex="1">
          <mxGeometry y="30" width="140" height="30" as="geometry" />
        </mxCell>
        <mxCell id="CpMBo5jT-6ZhsACoMXyv-4" value="SeasonPass" style="text;strokeColor=none;fillColor=none;align=left;verticalAlign=middle;spacingLeft=4;spacingRight=4;overflow=hidden;points=[[0,0.5],[1,0.5]];portConstraint=eastwest;rotatable=0;whiteSpace=wrap;html=1;fillStyle=auto;" parent="CpMBo5jT-6ZhsACoMXyv-2" vertex="1">
          <mxGeometry y="60" width="140" height="30" as="geometry" />
        </mxCell>
        <mxCell id="CpMBo5jT-6ZhsACoMXyv-5" value="Ultimate" style="text;strokeColor=none;fillColor=none;align=left;verticalAlign=middle;spacingLeft=4;spacingRight=4;overflow=hidden;points=[[0,0.5],[1,0.5]];portConstraint=eastwest;rotatable=0;whiteSpace=wrap;html=1;fillStyle=auto;" parent="CpMBo5jT-6ZhsACoMXyv-2" vertex="1">
          <mxGeometry y="90" width="140" height="30" as="geometry" />
        </mxCell>
        <mxCell id="CpMBo5jT-6ZhsACoMXyv-10" value="Limited" style="text;strokeColor=none;fillColor=none;align=left;verticalAlign=middle;spacingLeft=4;spacingRight=4;overflow=hidden;points=[[0,0.5],[1,0.5]];portConstraint=eastwest;rotatable=0;whiteSpace=wrap;html=1;fillStyle=auto;" parent="CpMBo5jT-6ZhsACoMXyv-2" vertex="1">
          <mxGeometry y="120" width="140" height="30" as="geometry" />
        </mxCell>
        <mxCell id="mgwLRcJ1EMfLhF9yiXv7-1" value="" style="endArrow=classic;html=1;rounded=0;edgeStyle=orthogonalEdgeStyle;elbow=vertical;endFill=1;entryX=0;entryY=0.5;entryDx=0;entryDy=0;exitX=0.75;exitY=1;exitDx=0;exitDy=0;jumpStyle=arc;" parent="1" source="K2BsHjy6juh8Ua25t9S5-54" target="Gt4cbnQS-56TKg6E3-HL-2" edge="1">
          <mxGeometry relative="1" as="geometry">
            <mxPoint x="590" y="-72" as="sourcePoint" />
            <mxPoint x="980" y="-110" as="targetPoint" />
            <Array as="points">
              <mxPoint x="825" y="-510" />
              <mxPoint x="810" y="-510" />
              <mxPoint x="810" y="-145" />
            </Array>
          </mxGeometry>
        </mxCell>
        <mxCell id="mgwLRcJ1EMfLhF9yiXv7-2" value="&lt;br&gt;" style="edgeLabel;resizable=0;html=1;align=center;verticalAlign=middle;fillStyle=auto;strokeColor=#8C8C8C;fillColor=#E3E3E3;" parent="mgwLRcJ1EMfLhF9yiXv7-1" connectable="0" vertex="1">
          <mxGeometry relative="1" as="geometry" />
        </mxCell>
        <mxCell id="mgwLRcJ1EMfLhF9yiXv7-4" value="0..* includedTrees" style="edgeLabel;resizable=0;html=1;align=right;verticalAlign=top;fillStyle=auto;strokeColor=#8C8C8C;fillColor=#E3E3E3;fontStyle=1" parent="mgwLRcJ1EMfLhF9yiXv7-1" connectable="0" vertex="1">
          <mxGeometry x="1" relative="1" as="geometry" />
        </mxCell>
        <mxCell id="y81IWiincUQRn4SbJ8is-1" value="SpiritTreeTier" style="swimlane;fontStyle=1;childLayout=stackLayout;horizontal=1;startSize=30;horizontalStack=0;resizeParent=1;resizeParentMax=0;resizeLast=0;collapsible=1;marginBottom=0;whiteSpace=wrap;html=1;fillStyle=auto;strokeColor=#8C8C8C;fillColor=#CCFFFF;" vertex="1" parent="1">
          <mxGeometry x="810" y="-110" width="140" height="50" as="geometry" />
        </mxCell>
        <mxCell id="y81IWiincUQRn4SbJ8is-5" value="" style="endArrow=none;html=1;rounded=0;edgeStyle=orthogonalEdgeStyle;elbow=vertical;endFill=0;exitX=0.25;exitY=1;exitDx=0;exitDy=0;entryX=1;entryY=0.5;entryDx=0;entryDy=0;" edge="1" parent="1" source="K2BsHjy6juh8Ua25t9S5-58" target="y81IWiincUQRn4SbJ8is-1">
          <mxGeometry relative="1" as="geometry">
            <mxPoint x="1210" y="-60" as="sourcePoint" />
            <mxPoint x="760" y="-60" as="targetPoint" />
          </mxGeometry>
        </mxCell>
        <mxCell id="y81IWiincUQRn4SbJ8is-6" value="&lt;br&gt;" style="edgeLabel;resizable=0;html=1;align=center;verticalAlign=middle;fillStyle=auto;strokeColor=#8C8C8C;fillColor=#E3E3E3;" connectable="0" vertex="1" parent="y81IWiincUQRn4SbJ8is-5">
          <mxGeometry relative="1" as="geometry" />
        </mxCell>
        <mxCell id="y81IWiincUQRn4SbJ8is-7" value="0..1 spiritTree" style="edgeLabel;resizable=0;html=1;align=right;verticalAlign=top;fillStyle=auto;strokeColor=#8C8C8C;fillColor=#E3E3E3;" connectable="0" vertex="1" parent="y81IWiincUQRn4SbJ8is-5">
          <mxGeometry x="-1" relative="1" as="geometry" />
        </mxCell>
        <mxCell id="y81IWiincUQRn4SbJ8is-8" value="0..1 tier" style="edgeLabel;resizable=0;html=1;align=left;verticalAlign=bottom;fillStyle=auto;strokeColor=#8C8C8C;fillColor=#E3E3E3;fontStyle=1;" connectable="0" vertex="1" parent="y81IWiincUQRn4SbJ8is-5">
          <mxGeometry x="1" relative="1" as="geometry" />
        </mxCell>
        <mxCell id="y81IWiincUQRn4SbJ8is-9" value="" style="endArrow=none;html=1;rounded=0;edgeStyle=orthogonalEdgeStyle;elbow=vertical;endFill=0;exitX=0.25;exitY=1;exitDx=0;exitDy=0;entryX=0.75;entryY=1;entryDx=0;entryDy=0;" edge="1" parent="1" source="y81IWiincUQRn4SbJ8is-1" target="y81IWiincUQRn4SbJ8is-1">
          <mxGeometry relative="1" as="geometry">
            <mxPoint x="835" y="-30" as="sourcePoint" />
            <mxPoint x="905" y="-30" as="targetPoint" />
            <Array as="points">
              <mxPoint x="845" y="-40" />
              <mxPoint x="915" y="-40" />
            </Array>
          </mxGeometry>
        </mxCell>
        <mxCell id="y81IWiincUQRn4SbJ8is-10" value="&lt;br&gt;" style="edgeLabel;resizable=0;html=1;align=center;verticalAlign=middle;fillStyle=auto;strokeColor=#8C8C8C;fillColor=#E3E3E3;" connectable="0" vertex="1" parent="y81IWiincUQRn4SbJ8is-9">
          <mxGeometry relative="1" as="geometry" />
        </mxCell>
        <mxCell id="y81IWiincUQRn4SbJ8is-11" value="0..1 prev" style="edgeLabel;resizable=0;html=1;align=right;verticalAlign=top;fillStyle=auto;strokeColor=#8C8C8C;fillColor=#E3E3E3;" connectable="0" vertex="1" parent="y81IWiincUQRn4SbJ8is-9">
          <mxGeometry x="-1" relative="1" as="geometry" />
        </mxCell>
        <mxCell id="y81IWiincUQRn4SbJ8is-12" value="0..1 next" style="edgeLabel;resizable=0;html=1;align=left;verticalAlign=top;fillStyle=auto;strokeColor=#8C8C8C;fillColor=#E3E3E3;fontStyle=1" connectable="0" vertex="1" parent="y81IWiincUQRn4SbJ8is-9">
          <mxGeometry x="1" relative="1" as="geometry" />
        </mxCell>
        <mxCell id="y81IWiincUQRn4SbJ8is-13" value="" style="endArrow=none;html=1;rounded=0;edgeStyle=orthogonalEdgeStyle;elbow=vertical;endFill=0;exitX=1;exitY=0.75;exitDx=0;exitDy=0;entryX=0.5;entryY=0;entryDx=0;entryDy=0;" edge="1" parent="1" source="K2BsHjy6juh8Ua25t9S5-38" target="y81IWiincUQRn4SbJ8is-23">
          <mxGeometry relative="1" as="geometry">
            <mxPoint x="450" y="20" as="sourcePoint" />
            <mxPoint x="620" y="-70" as="targetPoint" />
            <Array as="points">
              <mxPoint x="670" y="-147" />
            </Array>
          </mxGeometry>
        </mxCell>
        <mxCell id="y81IWiincUQRn4SbJ8is-14" value="&lt;br&gt;" style="edgeLabel;resizable=0;html=1;align=center;verticalAlign=middle;fillStyle=auto;strokeColor=#8C8C8C;fillColor=#E3E3E3;" connectable="0" vertex="1" parent="y81IWiincUQRn4SbJ8is-13">
          <mxGeometry relative="1" as="geometry" />
        </mxCell>
        <mxCell id="y81IWiincUQRn4SbJ8is-15" value="3 nodes" style="edgeLabel;resizable=0;html=1;align=left;verticalAlign=bottom;fillStyle=auto;strokeColor=#8C8C8C;fillColor=#E3E3E3;fontStyle=1" connectable="0" vertex="1" parent="y81IWiincUQRn4SbJ8is-13">
          <mxGeometry x="-1" relative="1" as="geometry" />
        </mxCell>
        <mxCell id="y81IWiincUQRn4SbJ8is-20" value="" style="endArrow=none;html=1;rounded=0;edgeStyle=orthogonalEdgeStyle;elbow=vertical;endFill=0;exitX=1;exitY=0.5;exitDx=0;exitDy=0;entryX=0;entryY=0.5;entryDx=0;entryDy=0;" edge="1" parent="1" source="y81IWiincUQRn4SbJ8is-23" target="y81IWiincUQRn4SbJ8is-1">
          <mxGeometry relative="1" as="geometry">
            <mxPoint x="600" y="-50" as="sourcePoint" />
            <mxPoint x="750" y="-23" as="targetPoint" />
            <Array as="points" />
          </mxGeometry>
        </mxCell>
        <mxCell id="y81IWiincUQRn4SbJ8is-21" value="&lt;br&gt;" style="edgeLabel;resizable=0;html=1;align=center;verticalAlign=middle;fillStyle=auto;strokeColor=#8C8C8C;fillColor=#E3E3E3;" connectable="0" vertex="1" parent="y81IWiincUQRn4SbJ8is-20">
          <mxGeometry relative="1" as="geometry" />
        </mxCell>
        <mxCell id="y81IWiincUQRn4SbJ8is-22" value="1..* rows" style="edgeLabel;resizable=0;html=1;align=left;verticalAlign=bottom;fillStyle=auto;strokeColor=#8C8C8C;fillColor=#E3E3E3;fontStyle=1" connectable="0" vertex="1" parent="y81IWiincUQRn4SbJ8is-20">
          <mxGeometry x="-1" relative="1" as="geometry" />
        </mxCell>
        <mxCell id="y81IWiincUQRn4SbJ8is-23" value="SpiritTreeTierRow" style="swimlane;fontStyle=1;childLayout=stackLayout;horizontal=1;startSize=30;horizontalStack=0;resizeParent=1;resizeParentMax=0;resizeLast=0;collapsible=1;marginBottom=0;whiteSpace=wrap;html=1;fillStyle=auto;strokeColor=#8C8C8C;fillColor=#CCFFFF;" vertex="1" parent="1">
          <mxGeometry x="600" y="-110" width="140" height="50" as="geometry" />
        </mxCell>
        <mxCell id="y81IWiincUQRn4SbJ8is-25" value="" style="endArrow=none;html=1;rounded=0;edgeStyle=orthogonalEdgeStyle;elbow=vertical;endFill=0;exitX=0.25;exitY=1;exitDx=0;exitDy=0;entryX=0.75;entryY=1;entryDx=0;entryDy=0;" edge="1" parent="1">
          <mxGeometry relative="1" as="geometry">
            <mxPoint x="455" y="-110" as="sourcePoint" />
            <mxPoint x="525" y="-110" as="targetPoint" />
            <Array as="points">
              <mxPoint x="455" y="-80" />
              <mxPoint x="525" y="-80" />
            </Array>
          </mxGeometry>
        </mxCell>
        <mxCell id="y81IWiincUQRn4SbJ8is-26" value="&lt;br&gt;" style="edgeLabel;resizable=0;html=1;align=center;verticalAlign=middle;fillStyle=auto;strokeColor=#8C8C8C;fillColor=#E3E3E3;" connectable="0" vertex="1" parent="y81IWiincUQRn4SbJ8is-25">
          <mxGeometry relative="1" as="geometry" />
        </mxCell>
        <mxCell id="y81IWiincUQRn4SbJ8is-27" value="1 root" style="edgeLabel;resizable=0;html=1;align=right;verticalAlign=top;fillStyle=auto;strokeColor=#8C8C8C;fillColor=#E3E3E3;" connectable="0" vertex="1" parent="y81IWiincUQRn4SbJ8is-25">
          <mxGeometry x="-1" relative="1" as="geometry">
            <mxPoint y="10" as="offset" />
          </mxGeometry>
        </mxCell>
        <mxCell id="y81IWiincUQRn4SbJ8is-40" value="" style="endArrow=none;html=1;rounded=0;edgeStyle=orthogonalEdgeStyle;elbow=vertical;endFill=0;exitX=0.25;exitY=1;exitDx=0;exitDy=0;entryX=0.75;entryY=1;entryDx=0;entryDy=0;" edge="1" parent="1">
          <mxGeometry relative="1" as="geometry">
            <mxPoint x="845" y="-40" as="sourcePoint" />
            <mxPoint x="915" y="-40" as="targetPoint" />
            <Array as="points">
              <mxPoint x="845" y="-20" />
              <mxPoint x="915" y="-20" />
            </Array>
          </mxGeometry>
        </mxCell>
        <mxCell id="y81IWiincUQRn4SbJ8is-41" value="&lt;br&gt;" style="edgeLabel;resizable=0;html=1;align=center;verticalAlign=middle;fillStyle=auto;strokeColor=#8C8C8C;fillColor=#E3E3E3;" connectable="0" vertex="1" parent="y81IWiincUQRn4SbJ8is-40">
          <mxGeometry relative="1" as="geometry" />
        </mxCell>
        <mxCell id="y81IWiincUQRn4SbJ8is-42" value="1 root" style="edgeLabel;resizable=0;html=1;align=right;verticalAlign=top;fillStyle=auto;strokeColor=#8C8C8C;fillColor=#E3E3E3;" connectable="0" vertex="1" parent="y81IWiincUQRn4SbJ8is-40">
          <mxGeometry x="-1" relative="1" as="geometry" />
        </mxCell>
      </root>
    </mxGraphModel>
  </diagram>
</mxfile>
